<?xml version="1.0" encoding="utf-8"?>
<!-- Generator: Adobe Illustrator 21.0.0, SVG Export Plug-In . SVG Version: 6.00 Build 0)  -->
<svg version="1.1" id="Capa_2" xmlns="http://www.w3.org/2000/svg" xmlns:xlink="http://www.w3.org/1999/xlink" x="0px" y="0px"
	 viewBox="0 0 310 304" style="enable-background:new 0 0 310 304;" xml:space="preserve">
<g>
	<path d="M279.4,48H152.8C147.4,32.9,133,22,116,22S84.6,32.9,79.2,48H30.6c-3.1,0-5.6,2.5-5.6,5.6v14.9c0,3.1,2.5,5.6,5.6,5.6h48.7
		c5.4,15.1,19.8,26,36.8,26s31.4-10.9,36.8-26h126.7c3.1,0,5.6-2.5,5.6-5.6V53.6C285,50.5,282.5,48,279.4,48z M116,74
		c-7.2,0-13-5.8-13-13s5.8-13,13-13s13,5.8,13,13S123.2,74,116,74z"/>
	<path d="M279.4,230H139.8c-5.4-15.1-19.8-26-36.8-26s-31.4,10.9-36.8,26H30.6c-3.1,0-5.6,2.5-5.6,5.6v14.9c0,3.1,2.5,5.6,5.6,5.6
		h35.7c5.4,15.1,19.8,26,36.8,26s31.4-10.9,36.8-26h139.7c3.1,0,5.6-2.5,5.6-5.6v-14.9C285,232.5,282.5,230,279.4,230z M103,256
		c-7.2,0-13-5.8-13-13s5.8-13,13-13s13,5.8,13,13S110.2,256,103,256z"/>
	<path d="M279.4,139h-48.7c-5.4-15.1-19.8-26-36.8-26s-31.4,10.9-36.8,26H30.6c-3.1,0-5.6,2.5-5.6,5.6v14.9c0,3.1,2.5,5.6,5.6,5.6
		h126.7c5.4,15.1,19.8,26,36.8,26s31.4-10.9,36.8-26h48.7c3.1,0,5.6-2.5,5.6-5.6v-14.9C285,141.5,282.5,139,279.4,139z M194,165
		c-7.2,0-13-5.8-13-13s5.8-13,13-13s13,5.8,13,13S201.2,165,194,165z"/>
</g>
</svg>
