<?xml version="1.0" encoding="utf-8"?>
<!-- Generator: Adobe Illustrator 21.0.0, SVG Export Plug-In . SVG Version: 6.00 Build 0)  -->
<svg version="1.1" id="Capa_1" xmlns="http://www.w3.org/2000/svg" xmlns:xlink="http://www.w3.org/1999/xlink" x="0px" y="0px"
	 viewBox="0 0 17 18" style="enable-background:new 0 0 17 18;" xml:space="preserve">
<style type="text/css">
	.st0{clip-path:url(#SVGID_2_);}
	.st1{clip-path:url(#SVGID_4_);fill:#FFFFFF;}
	.st2{clip-path:url(#SVGID_6_);}
	.st3{clip-path:url(#SVGID_8_);fill:#FFFFFF;}
	.st4{clip-path:url(#SVGID_10_);}
	.st5{clip-path:url(#SVGID_12_);fill:#FFFFFF;}
	.st6{clip-path:url(#SVGID_14_);}
	.st7{clip-path:url(#SVGID_16_);fill:#FFFFFF;}
	.st8{clip-path:url(#SVGID_18_);}
	.st9{clip-path:url(#SVGID_20_);fill:#FFFFFF;}
	.st10{clip-path:url(#SVGID_22_);}
	.st11{clip-path:url(#SVGID_24_);fill:#FFFFFF;}
	.st12{clip-path:url(#SVGID_26_);}
	.st13{clip-path:url(#SVGID_28_);fill:#FFFFFF;}
	.st14{clip-path:url(#SVGID_30_);}
	.st15{clip-path:url(#SVGID_32_);fill:#FFFFFF;}
	.st16{clip-path:url(#SVGID_34_);}
	.st17{clip-path:url(#SVGID_36_);fill:#FFFFFF;}
</style>
<g>
	<defs>
		<path id="SVGID_1_" d="M6.1,9.9c0-0.2-0.2-0.4-0.4-0.4H4.4C4.2,9.5,4,9.7,4,9.9v1.4c0,0.2,0.2,0.4,0.4,0.4h1.4
			c0.2,0,0.4-0.2,0.4-0.4V9.9z"/>
	</defs>
	<use xlink:href="#SVGID_1_"  style="overflow:visible;fill:#FFFFFF;"/>
	<clipPath id="SVGID_2_">
		<use xlink:href="#SVGID_1_"  style="overflow:visible;"/>
	</clipPath>
	<g class="st0">
		<defs>
			<rect id="SVGID_3_" x="-20" y="-8" width="375" height="667"/>
		</defs>
		<use xlink:href="#SVGID_3_"  style="overflow:visible;fill:#FFFFFF;"/>
		<clipPath id="SVGID_4_">
			<use xlink:href="#SVGID_3_"  style="overflow:visible;"/>
		</clipPath>
		<rect x="-1" y="4.5" class="st1" width="12.2" height="12.2"/>
	</g>
</g>
<g>
	<defs>
		<path id="SVGID_5_" d="M9.6,9.9c0-0.2-0.2-0.4-0.4-0.4H7.8c-0.2,0-0.4,0.2-0.4,0.4v1.4c0,0.2,0.2,0.4,0.4,0.4h1.4
			c0.2,0,0.4-0.2,0.4-0.4V9.9z"/>
	</defs>
	<use xlink:href="#SVGID_5_"  style="overflow:visible;fill:#FFFFFF;"/>
	<clipPath id="SVGID_6_">
		<use xlink:href="#SVGID_5_"  style="overflow:visible;"/>
	</clipPath>
	<g class="st2">
		<defs>
			<rect id="SVGID_7_" x="-20" y="-8" width="375" height="667"/>
		</defs>
		<use xlink:href="#SVGID_7_"  style="overflow:visible;fill:#FFFFFF;"/>
		<clipPath id="SVGID_8_">
			<use xlink:href="#SVGID_7_"  style="overflow:visible;"/>
		</clipPath>
		<rect x="2.4" y="4.5" class="st3" width="12.2" height="12.2"/>
	</g>
</g>
<g>
	<defs>
		<path id="SVGID_9_" d="M13,9.9c0-0.2-0.2-0.4-0.4-0.4h-1.4c-0.2,0-0.4,0.2-0.4,0.4v1.4c0,0.2,0.2,0.4,0.4,0.4h1.4
			c0.2,0,0.4-0.2,0.4-0.4V9.9z"/>
	</defs>
	<use xlink:href="#SVGID_9_"  style="overflow:visible;fill:#FFFFFF;"/>
	<clipPath id="SVGID_10_">
		<use xlink:href="#SVGID_9_"  style="overflow:visible;"/>
	</clipPath>
	<g class="st4">
		<defs>
			<rect id="SVGID_11_" x="-20" y="-8" width="375" height="667"/>
		</defs>
		<use xlink:href="#SVGID_11_"  style="overflow:visible;fill:#FFFFFF;"/>
		<clipPath id="SVGID_12_">
			<use xlink:href="#SVGID_11_"  style="overflow:visible;"/>
		</clipPath>
		<rect x="5.9" y="4.5" class="st5" width="12.2" height="12.2"/>
	</g>
</g>
<g>
	<defs>
		<path id="SVGID_13_" d="M6.1,13.5c0-0.2-0.2-0.4-0.4-0.4H4.4c-0.2,0-0.4,0.2-0.4,0.4v1.4c0,0.2,0.2,0.4,0.4,0.4h1.4
			c0.2,0,0.4-0.2,0.4-0.4V13.5z"/>
	</defs>
	<use xlink:href="#SVGID_13_"  style="overflow:visible;fill:#FFFFFF;"/>
	<clipPath id="SVGID_14_">
		<use xlink:href="#SVGID_13_"  style="overflow:visible;"/>
	</clipPath>
	<g class="st6">
		<defs>
			<rect id="SVGID_15_" x="-20" y="-8" width="375" height="667"/>
		</defs>
		<use xlink:href="#SVGID_15_"  style="overflow:visible;fill:#FFFFFF;"/>
		<clipPath id="SVGID_16_">
			<use xlink:href="#SVGID_15_"  style="overflow:visible;"/>
		</clipPath>
		<rect x="-1" y="8.1" class="st7" width="12.2" height="12.2"/>
	</g>
</g>
<g>
	<defs>
		<path id="SVGID_17_" d="M9.6,13.5c0-0.2-0.2-0.4-0.4-0.4H7.8c-0.2,0-0.4,0.2-0.4,0.4v1.4c0,0.2,0.2,0.4,0.4,0.4h1.4
			c0.2,0,0.4-0.2,0.4-0.4V13.5z"/>
	</defs>
	<use xlink:href="#SVGID_17_"  style="overflow:visible;fill:#FFFFFF;"/>
	<clipPath id="SVGID_18_">
		<use xlink:href="#SVGID_17_"  style="overflow:visible;"/>
	</clipPath>
	<g class="st8">
		<defs>
			<rect id="SVGID_19_" x="-20" y="-8" width="375" height="667"/>
		</defs>
		<use xlink:href="#SVGID_19_"  style="overflow:visible;fill:#FFFFFF;"/>
		<clipPath id="SVGID_20_">
			<use xlink:href="#SVGID_19_"  style="overflow:visible;"/>
		</clipPath>
		<rect x="2.4" y="8.1" class="st9" width="12.2" height="12.2"/>
	</g>
</g>
<g>
	<defs>
		<path id="SVGID_21_" d="M13,13.5c0-0.2-0.2-0.4-0.4-0.4h-1.4c-0.2,0-0.4,0.2-0.4,0.4v1.4c0,0.2,0.2,0.4,0.4,0.4h1.4
			c0.2,0,0.4-0.2,0.4-0.4V13.5z"/>
	</defs>
	<use xlink:href="#SVGID_21_"  style="overflow:visible;fill:#FFFFFF;"/>
	<clipPath id="SVGID_22_">
		<use xlink:href="#SVGID_21_"  style="overflow:visible;"/>
	</clipPath>
	<g class="st10">
		<defs>
			<rect id="SVGID_23_" x="-20" y="-8" width="375" height="667"/>
		</defs>
		<use xlink:href="#SVGID_23_"  style="overflow:visible;fill:#FFFFFF;"/>
		<clipPath id="SVGID_24_">
			<use xlink:href="#SVGID_23_"  style="overflow:visible;"/>
		</clipPath>
		<rect x="5.9" y="8.1" class="st11" width="12.2" height="12.2"/>
	</g>
</g>
<g>
	<defs>
		<path id="SVGID_25_" d="M15,15.6c0,0.4-0.3,0.7-0.7,0.7H2.7c-0.4,0-0.7-0.3-0.7-0.7V9c0-0.4,0.3-0.7,0.7-0.7h11.6
			C14.7,8.3,15,8.6,15,9L15,15.6z M15.5,2v2.2c0,1-0.8,1.8-1.7,1.8h-1.1c-0.9,0-1.7-0.8-1.7-1.8V2H6.1v2.2c0,1-0.8,1.8-1.7,1.8H3.2
			c-0.9,0-1.7-0.8-1.7-1.8V2C0.7,2,0,2.7,0,3.6v12.7C0,17.2,0.7,18,1.6,18h13.9c0.9,0,1.6-0.7,1.6-1.6V3.6C17,2.7,16.3,2,15.5,2z"/>
	</defs>
	<use xlink:href="#SVGID_25_"  style="overflow:visible;fill:#FFFFFF;"/>
	<clipPath id="SVGID_26_">
		<use xlink:href="#SVGID_25_"  style="overflow:visible;"/>
	</clipPath>
	<g class="st12">
		<defs>
			<rect id="SVGID_27_" x="-20" y="-8" width="375" height="667"/>
		</defs>
		<use xlink:href="#SVGID_27_"  style="overflow:visible;fill:#FFFFFF;"/>
		<clipPath id="SVGID_28_">
			<use xlink:href="#SVGID_27_"  style="overflow:visible;"/>
		</clipPath>
		<rect x="-5" y="-3" class="st13" width="27" height="26"/>
	</g>
</g>
<g>
	<defs>
		<path id="SVGID_29_" d="M3.2,4.8h1.1c0.3,0,0.6-0.3,0.6-0.6V0.6C4.9,0.3,4.6,0,4.3,0H3.2C2.9,0,2.7,0.3,2.7,0.6v3.6
			C2.7,4.5,2.9,4.8,3.2,4.8z"/>
	</defs>
	<use xlink:href="#SVGID_29_"  style="overflow:visible;fill:#FFFFFF;"/>
	<clipPath id="SVGID_30_">
		<use xlink:href="#SVGID_29_"  style="overflow:visible;"/>
	</clipPath>
	<g class="st14">
		<defs>
			<rect id="SVGID_31_" x="-20" y="-8" width="375" height="667"/>
		</defs>
		<use xlink:href="#SVGID_31_"  style="overflow:visible;fill:#FFFFFF;"/>
		<clipPath id="SVGID_32_">
			<use xlink:href="#SVGID_31_"  style="overflow:visible;"/>
		</clipPath>
		<rect x="-2.3" y="-5" class="st15" width="12.3" height="14.8"/>
	</g>
</g>
<g>
	<defs>
		<path id="SVGID_33_" d="M12.7,4.8h1.1c0.3,0,0.6-0.3,0.6-0.6V0.6c0-0.3-0.3-0.6-0.6-0.6h-1.1c-0.3,0-0.6,0.3-0.6,0.6v3.6
			C12.1,4.5,12.3,4.8,12.7,4.8z"/>
	</defs>
	<use xlink:href="#SVGID_33_"  style="overflow:visible;fill:#FFFFFF;"/>
	<clipPath id="SVGID_34_">
		<use xlink:href="#SVGID_33_"  style="overflow:visible;"/>
	</clipPath>
	<g class="st16">
		<defs>
			<rect id="SVGID_35_" x="-20" y="-8" width="375" height="667"/>
		</defs>
		<use xlink:href="#SVGID_35_"  style="overflow:visible;fill:#FFFFFF;"/>
		<clipPath id="SVGID_36_">
			<use xlink:href="#SVGID_35_"  style="overflow:visible;"/>
		</clipPath>
		<rect x="7.1" y="-5" class="st17" width="12.3" height="14.8"/>
	</g>
</g>
</svg>
