<?xml version="1.0" encoding="utf-8"?>
<!-- Generator: Adobe Illustrator 21.0.0, SVG Export Plug-In . SVG Version: 6.00 Build 0)  -->
<svg version="1.1" id="Capa_1" xmlns="http://www.w3.org/2000/svg" xmlns:xlink="http://www.w3.org/1999/xlink" x="0px" y="0px"
	 viewBox="0 0 26 30" style="enable-background:new 0 0 26 30;" xml:space="preserve">
<style type="text/css">
	.st0{clip-path:url(#SVGID_2_);}
	.st1{clip-path:url(#SVGID_4_);}
	.st2{clip-path:url(#SVGID_6_);}
	.st3{clip-path:url(#SVGID_8_);}
	.st4{clip-path:url(#SVGID_10_);}
	.st5{clip-path:url(#SVGID_12_);}
	.st6{clip-path:url(#SVGID_14_);}
	.st7{clip-path:url(#SVGID_16_);}
	.st8{clip-path:url(#SVGID_18_);}
	.st9{clip-path:url(#SVGID_20_);}
	.st10{clip-path:url(#SVGID_22_);}
	.st11{clip-path:url(#SVGID_24_);}
	.st12{clip-path:url(#SVGID_26_);}
	.st13{clip-path:url(#SVGID_28_);}
	.st14{clip-path:url(#SVGID_30_);}
	.st15{clip-path:url(#SVGID_32_);}
	.st16{clip-path:url(#SVGID_34_);}
	.st17{clip-path:url(#SVGID_36_);}
</style>
<g>
	<g>
		<defs>
			<path id="SVGID_1_" d="M9.8,16.2c0-0.3-0.2-0.5-0.5-0.5H7.4c-0.3,0-0.5,0.2-0.5,0.5v1.9c0,0.3,0.2,0.5,0.5,0.5h1.9
				c0.3,0,0.5-0.2,0.5-0.5V16.2z"/>
		</defs>
		<clipPath id="SVGID_2_">
			<use xlink:href="#SVGID_1_"  style="overflow:visible;"/>
		</clipPath>
		<g class="st0">
			<defs>
				<rect id="SVGID_3_" x="-186.5" y="-608" width="375" height="4190"/>
			</defs>
			<clipPath id="SVGID_4_">
				<use xlink:href="#SVGID_3_"  style="overflow:visible;"/>
			</clipPath>
			<rect x="1.9" y="10.7" class="st1" width="12.9" height="13"/>
		</g>
	</g>
	<g>
		<defs>
			<path id="SVGID_5_" d="M14.5,16.2c0-0.3-0.2-0.5-0.5-0.5h-1.9c-0.3,0-0.5,0.2-0.5,0.5v1.9c0,0.3,0.2,0.5,0.5,0.5h1.9
				c0.3,0,0.5-0.2,0.5-0.5V16.2z"/>
		</defs>
		<clipPath id="SVGID_6_">
			<use xlink:href="#SVGID_5_"  style="overflow:visible;"/>
		</clipPath>
		<g class="st2">
			<defs>
				<rect id="SVGID_7_" x="-186.5" y="-608" width="375" height="4190"/>
			</defs>
			<clipPath id="SVGID_8_">
				<use xlink:href="#SVGID_7_"  style="overflow:visible;"/>
			</clipPath>
			<rect x="6.5" y="10.7" class="st3" width="12.9" height="13"/>
		</g>
	</g>
	<g>
		<defs>
			<path id="SVGID_9_" d="M19.1,16.2c0-0.3-0.2-0.5-0.5-0.5h-1.9c-0.3,0-0.5,0.2-0.5,0.5v1.9c0,0.3,0.2,0.5,0.5,0.5h1.9
				c0.3,0,0.5-0.2,0.5-0.5V16.2z"/>
		</defs>
		<clipPath id="SVGID_10_">
			<use xlink:href="#SVGID_9_"  style="overflow:visible;"/>
		</clipPath>
		<g class="st4">
			<defs>
				<rect id="SVGID_11_" x="-186.5" y="-608" width="375" height="4190"/>
			</defs>
			<clipPath id="SVGID_12_">
				<use xlink:href="#SVGID_11_"  style="overflow:visible;"/>
			</clipPath>
			<rect x="11.2" y="10.7" class="st5" width="12.9" height="13"/>
		</g>
	</g>
	<g>
		<defs>
			<path id="SVGID_13_" d="M9.8,21c0-0.3-0.2-0.5-0.5-0.5H7.4c-0.3,0-0.5,0.2-0.5,0.5v1.9c0,0.3,0.2,0.5,0.5,0.5h1.9
				c0.3,0,0.5-0.2,0.5-0.5V21z"/>
		</defs>
		<clipPath id="SVGID_14_">
			<use xlink:href="#SVGID_13_"  style="overflow:visible;"/>
		</clipPath>
		<g class="st6">
			<defs>
				<rect id="SVGID_15_" x="-186.5" y="-608" width="375" height="4190"/>
			</defs>
			<clipPath id="SVGID_16_">
				<use xlink:href="#SVGID_15_"  style="overflow:visible;"/>
			</clipPath>
			<rect x="1.9" y="15.4" class="st7" width="12.9" height="13"/>
		</g>
	</g>
	<g>
		<defs>
			<path id="SVGID_17_" d="M14.5,21c0-0.3-0.2-0.5-0.5-0.5h-1.9c-0.3,0-0.5,0.2-0.5,0.5v1.9c0,0.3,0.2,0.5,0.5,0.5h1.9
				c0.3,0,0.5-0.2,0.5-0.5V21z"/>
		</defs>
		<clipPath id="SVGID_18_">
			<use xlink:href="#SVGID_17_"  style="overflow:visible;"/>
		</clipPath>
		<g class="st8">
			<defs>
				<rect id="SVGID_19_" x="-186.5" y="-608" width="375" height="4190"/>
			</defs>
			<clipPath id="SVGID_20_">
				<use xlink:href="#SVGID_19_"  style="overflow:visible;"/>
			</clipPath>
			<rect x="6.5" y="15.4" class="st9" width="12.9" height="13"/>
		</g>
	</g>
	<g>
		<defs>
			<path id="SVGID_21_" d="M19.1,21c0-0.3-0.2-0.5-0.5-0.5h-1.9c-0.3,0-0.5,0.2-0.5,0.5v1.9c0,0.3,0.2,0.5,0.5,0.5h1.9
				c0.3,0,0.5-0.2,0.5-0.5V21z"/>
		</defs>
		<clipPath id="SVGID_22_">
			<use xlink:href="#SVGID_21_"  style="overflow:visible;"/>
		</clipPath>
		<g class="st10">
			<defs>
				<rect id="SVGID_23_" x="-186.5" y="-608" width="375" height="4190"/>
			</defs>
			<clipPath id="SVGID_24_">
				<use xlink:href="#SVGID_23_"  style="overflow:visible;"/>
			</clipPath>
			<rect x="11.2" y="15.4" class="st11" width="12.9" height="13"/>
		</g>
	</g>
	<g>
		<defs>
			<path id="SVGID_25_" d="M21.8,23.8c0,0.5-0.4,0.9-0.9,0.9H5.1c-0.5,0-0.9-0.4-0.9-0.9V15c0-0.5,0.4-0.9,0.9-0.9h15.7
				c0.5,0,0.9,0.4,0.9,0.9L21.8,23.8z M22.4,5.7v2.9c0,1.3-1,2.4-2.3,2.4h-1.5c-1.3,0-2.3-1.1-2.3-2.4V5.7H9.7v2.9
				c0,1.3-1.1,2.4-2.3,2.4H5.9c-1.3,0-2.3-1.1-2.3-2.4V5.7c-1.1,0-2,1-2,2.1v17C1.5,26,2.5,27,3.6,27h18.8c1.2,0,2.1-1,2.1-2.2v-17
				C24.5,6.7,23.6,5.7,22.4,5.7z"/>
		</defs>
		<clipPath id="SVGID_26_">
			<use xlink:href="#SVGID_25_"  style="overflow:visible;"/>
		</clipPath>
		<g class="st12">
			<defs>
				<rect id="SVGID_27_" x="-186.5" y="-608" width="375" height="4190"/>
			</defs>
			<clipPath id="SVGID_28_">
				<use xlink:href="#SVGID_27_"  style="overflow:visible;"/>
			</clipPath>
			<rect x="-3.5" y="0.7" class="st13" width="33" height="31.3"/>
		</g>
	</g>
	<g>
		<defs>
			<path id="SVGID_29_" d="M5.9,9.4h1.5c0.4,0,0.8-0.4,0.8-0.8V3.8C8.1,3.4,7.8,3,7.3,3H5.9C5.4,3,5.1,3.4,5.1,3.8v4.8
				C5.1,9,5.4,9.4,5.9,9.4z"/>
		</defs>
		<clipPath id="SVGID_30_">
			<use xlink:href="#SVGID_29_"  style="overflow:visible;"/>
		</clipPath>
		<g class="st14">
			<defs>
				<rect id="SVGID_31_" x="-186.5" y="-608" width="375" height="4190"/>
			</defs>
			<clipPath id="SVGID_32_">
				<use xlink:href="#SVGID_31_"  style="overflow:visible;"/>
			</clipPath>
			<rect x="0.1" y="-2" class="st15" width="13" height="16.4"/>
		</g>
	</g>
	<g>
		<defs>
			<path id="SVGID_33_" d="M18.6,9.4h1.5c0.4,0,0.8-0.4,0.8-0.8V3.8c0-0.4-0.4-0.8-0.8-0.8h-1.5c-0.4,0-0.8,0.4-0.8,0.8v4.8
				C17.8,9,18.2,9.4,18.6,9.4z"/>
		</defs>
		<clipPath id="SVGID_34_">
			<use xlink:href="#SVGID_33_"  style="overflow:visible;"/>
		</clipPath>
		<g class="st16">
			<defs>
				<rect id="SVGID_35_" x="-186.5" y="-608" width="375" height="4190"/>
			</defs>
			<clipPath id="SVGID_36_">
				<use xlink:href="#SVGID_35_"  style="overflow:visible;"/>
			</clipPath>
			<rect x="12.8" y="-2" class="st17" width="13" height="16.4"/>
		</g>
	</g>
</g>
</svg>
