<?xml version="1.0" encoding="utf-8"?>
<!-- Generator: Adobe Illustrator 21.0.0, SVG Export Plug-In . SVG Version: 6.00 Build 0)  -->
<svg version="1.1" id="Capa_1" xmlns="http://www.w3.org/2000/svg" xmlns:xlink="http://www.w3.org/1999/xlink" x="0px" y="0px"
	 viewBox="0 0 17 18" style="enable-background:new 0 0 17 18;" xml:space="preserve">
<style type="text/css">
	.st0{clip-path:url(#SVGID_2_);}
	.st1{clip-path:url(#SVGID_4_);}
	.st2{clip-path:url(#SVGID_6_);}
	.st3{clip-path:url(#SVGID_8_);}
</style>
<g>
	<defs>
		<path id="SVGID_1_" d="M0.5,15.7c-0.3-0.3-0.3-0.7,0-0.9L14.2,1c0.3-0.3,0.7-0.3,0.9,0l1.4,1.4c0.3,0.3,0.3,0.7,0,0.9L2.8,17
			c-0.3,0.3-0.7,0.3-0.9,0L0.5,15.7z"/>
	</defs>
	<clipPath id="SVGID_2_">
		<use xlink:href="#SVGID_1_"  style="overflow:visible;"/>
	</clipPath>
	<g class="st0">
		<defs>
			<rect id="SVGID_3_" x="-17.5" y="-38.3" width="309.8" height="551.1"/>
		</defs>
		<clipPath id="SVGID_4_">
			<use xlink:href="#SVGID_3_"  style="overflow:visible;"/>
		</clipPath>
		<rect x="-6" y="3.3" transform="matrix(0.7071 -0.7071 0.7071 0.7071 -3.8744 8.6464)" class="st1" width="29" height="11.5"/>
	</g>
</g>
<g>
	<defs>
		<path id="SVGID_5_" d="M1.8,1c0.3-0.3,0.7-0.3,0.9,0l13.8,13.8c0.3,0.3,0.3,0.7,0,0.9L15.2,17c-0.3,0.3-0.7,0.3-0.9,0L0.5,3.3
			C0.2,3,0.2,2.6,0.5,2.3L1.8,1z"/>
	</defs>
	<clipPath id="SVGID_6_">
		<use xlink:href="#SVGID_5_"  style="overflow:visible;"/>
	</clipPath>
	<g class="st2">
		<defs>
			<rect id="SVGID_7_" x="-17.5" y="-38.3" width="309.8" height="551.1"/>
		</defs>
		<clipPath id="SVGID_8_">
			<use xlink:href="#SVGID_7_"  style="overflow:visible;"/>
		</clipPath>
		<rect x="2.8" y="-5.5" transform="matrix(0.7071 -0.7071 0.7071 0.7071 -3.8744 8.6464)" class="st3" width="11.5" height="29"/>
	</g>
</g>
</svg>
