<?xml version="1.0" encoding="utf-8"?>
<!-- Generator: Adobe Illustrator 21.0.0, SVG Export Plug-In . SVG Version: 6.00 Build 0)  -->
<svg version="1.1" id="Capa_1" xmlns="http://www.w3.org/2000/svg" xmlns:xlink="http://www.w3.org/1999/xlink" x="0px" y="0px"
	 viewBox="0 0 48 48" style="enable-background:new 0 0 48 48;" xml:space="preserve">
<style type="text/css">
	.st0{clip-path:url(#SVGID_2_);fill:#FFFFFF;}
	.st1{clip-path:url(#SVGID_4_);fill:#FFFFFF;}
	.st2{clip-path:url(#SVGID_6_);fill:#FFFFFF;}
	.st3{clip-path:url(#SVGID_8_);fill:#FFFFFF;}
</style>
<g>
	<defs>
		<ellipse id="SVGID_1_" cx="24" cy="23.9" rx="5.8" ry="5.6"/>
	</defs>
	<clipPath id="SVGID_2_">
		<use xlink:href="#SVGID_1_"  style="overflow:visible;"/>
	</clipPath>
	<rect x="13.2" y="13.3" class="st0" width="21.6" height="21.2"/>
</g>
<g>
	<defs>
		<path id="SVGID_3_" d="M33,24.3c0,4.8-4,8.7-9,8.7s-9-3.9-9-8.7c0-0.9,0.1-1.7,0.4-2.5h-2.7V34c0,0.6,0.5,1.1,1.1,1.1H34
			c0.6,0,1.1-0.5,1.1-1.1V21.8h-2.5C32.9,22.6,33,23.4,33,24.3z"/>
	</defs>
	<clipPath id="SVGID_4_">
		<use xlink:href="#SVGID_3_"  style="overflow:visible;"/>
	</clipPath>
	<rect x="7.8" y="16.8" class="st1" width="32.4" height="23.4"/>
</g>
<g>
	<defs>
		<path id="SVGID_5_" d="M30.6,18.5h3.3c0.7,0,1.3-0.6,1.3-1.3v-3.1c0-0.7-0.6-1.3-1.3-1.3h-3.3c-0.7,0-1.3,0.6-1.3,1.3v3.1
			C29.3,17.9,29.9,18.5,30.6,18.5z"/>
	</defs>
	<clipPath id="SVGID_6_">
		<use xlink:href="#SVGID_5_"  style="overflow:visible;"/>
	</clipPath>
	<rect x="24.3" y="7.8" class="st2" width="15.9" height="15.7"/>
</g>
<g>
	<defs>
		<path id="SVGID_7_" d="M34.7,38.4H13.3c-2,0-3.7-1.5-3.7-3.7V13.3c0-2.2,1.7-3.7,3.7-3.7h21.5c2,0,3.7,1.5,3.7,3.7v21.5
			C38.4,36.9,36.8,38.4,34.7,38.4z M24,0.1C10.8,0.1,0.1,10.8,0.1,24S10.8,47.9,24,47.9S47.9,37.2,47.9,24S37.2,0.1,24,0.1z"/>
	</defs>
	<clipPath id="SVGID_8_">
		<use xlink:href="#SVGID_7_"  style="overflow:visible;"/>
	</clipPath>
	<rect x="-4.9" y="-4.9" class="st3" width="57.9" height="57.9"/>
</g>
</svg>
