<?xml version="1.0" encoding="utf-8"?>
<!-- Generator: Adobe Illustrator 21.0.0, SVG Export Plug-In . SVG Version: 6.00 Build 0)  -->
<svg version="1.1" id="Capa_1" xmlns="http://www.w3.org/2000/svg" xmlns:xlink="http://www.w3.org/1999/xlink" x="0px" y="0px"
	 viewBox="0 0 225 84" style="enable-background:new 0 0 225 84;" xml:space="preserve">
<style type="text/css">
	.st0{fill:#0071CE;}
</style>
<path class="st0" d="M221,1.7l-12.8,9.4c-0.6,0.4-0.4,1.3,0.3,1.5c0,0,2.4-0.5,5.7,1.6c3.3,2.1,3.9,4.4,3.9,4.4
	c0.5,0.5,1.4,0.3,1.5-0.4l2.8-15.6C222.5,1.8,221.6,1.3,221,1.7z"/>
<g>
	<path d="M9.7,41.4c0,3.8,1.3,5.7,3.8,5.7c1.8,0,3.5-1.1,3.6-4c0.2-1.3,0.2-2,1.5-2h4.3c1.1,0,1.4,0.4,1.5,1.5
		c0.2,2.6-0.8,5.2-2.7,7.7C19.8,52.8,17,54,13.5,54c-3.1,0-5.8-1.1-8-3.3c-2.2-2.3-3.3-5.8-3.3-10.5V29.6c0-4.7,1.1-8.3,3.3-10.5
		c2.2-2.3,4.9-3.4,8-3.4s5.8,1.1,8,3.4c2.2,2.2,3.3,5.7,3.3,10.5v5c0,1.2-0.4,1.5-1.6,1.5h-12c-1.1,0-1.5,0.4-1.5,1.5V41.4z
		 M13.5,22.7c-2.3,0-3.6,1.7-3.8,5.3c0,1.5,0,1.5,1.5,1.5h4.5c1.5,0,1.5,0,1.5-1.5C17.2,24.4,16,22.7,13.5,22.7z"/>
	<path d="M31.2,2.5c0-1.1,0.4-1.5,1.5-1.5h4.5c1.1,0,1.5,0.4,1.5,1.5v36.3c0,2.4,0,3.1,0.2,4.7c0.5,2.2,1.4,2.9,3.8,3.2
		c1.1,0.1,1.5,0.4,1.5,1.5v4.1c0,1.1-0.4,1.5-1.5,1.5c-4.3,0-7.3-1.1-9-3.2c-1.7-2.2-2.6-6.2-2.6-11.8V2.5z"/>
	<path d="M82.7,16.1c0.8,0,1.4,0,1.3,1.3l-7,35c-0.2,1.1-0.5,1.4-1.7,1.4h-4.1c-1.2,0-1.4-0.2-1.7-1.4l-7-35
		c-0.2-1.1,0.3-1.3,1.3-1.3h4.5c0.9,0,1.5,0,1.7,1.1L73,35.3c0.1,0.4,0.5,0.4,0.6,0l2.9-18.1c0.2-1.1,0.8-1.1,1.7-1.1H82.7z"/>
	<path d="M92.9,4.2c2.3,0,4.2,1.9,4.2,4.2c0,2.4-1.9,4.2-4.2,4.2c-2.4,0-4.2-1.8-4.2-4.2C88.7,6.1,90.5,4.2,92.9,4.2z M90.7,53.7
		c-1.1,0-1.5-0.4-1.5-1.5V17.6c0-1.1,0.4-1.5,1.5-1.5h4.5c1.1,0,1.5,0.4,1.5,1.5v34.6c0,1.1-0.4,1.5-1.5,1.5H90.7z"/>
	<path d="M125.8,48.5c0.1,1.1,0.2,2.3,0.6,3.7c0.2,1-0.3,1.5-1.5,1.5h-4.2c-1.1,0-1.4-0.4-1.7-2.3c-1.6,1.7-3.7,2.6-6.2,2.6
		c-5.6,0-9.6-3.6-9.6-10v-3.3c0.2-4.1,1.5-6.5,4.1-7.9c1-0.6,1.8-1,2.4-1.2l2.7-0.9c1.2-0.4,2-0.7,2.4-0.8c2.3-0.8,3.4-2.1,3.4-3.8
		c0-1.8-1.4-3.4-3.4-3.4c-2,0-3.6,1.7-3.5,4.4c0.1,1.1-0.3,1.5-1.5,1.5h-4.2c-1.1,0-1.4-0.4-1.5-1.5c-0.1-3.1,0.9-5.8,3-8
		c2.1-2.3,4.7-3.4,7.8-3.4c2.9,0,5.5,1.1,7.7,3.2c2.2,2.1,3.2,4.9,3.2,8.4V48.5z M118.3,41.1v-6c-0.4,0.2-1,0.5-2,0.8
		c-1.8,0.8-2,0.8-3.3,1.7c-1.4,0.8-2.3,2.1-2.3,3.9V42c0,3.4,1.3,5,3.8,5C117.5,47.1,118.2,44.9,118.3,41.1z"/>
	<path d="M132.7,57.5c0.3-1.7,0.3-2.6,0.3-5.6V17.6c0-1.1,0.4-1.5,1.5-1.5h4.5c1.1,0,1.5,0.4,1.5,1.5V54c0,9.6-3.8,13.3-10.1,13.3
		c-1.1,0-1.5-0.4-1.5-1.5v-4.1c0-1.1,0.4-1.4,1.5-1.5C131.6,60.1,132.4,59.4,132.7,57.5z M136.7,4.2c2.3,0,4.2,1.9,4.2,4.2
		c0,2.4-1.9,4.2-4.2,4.2c-2.4,0-4.2-1.8-4.2-4.2C132.5,6.1,134.3,4.2,136.7,4.2z"/>
	<path d="M154.8,41.4c0,3.8,1.3,5.7,3.8,5.7c1.8,0,3.5-1.1,3.6-4c0.2-1.3,0.2-2,1.5-2h4.3c1.1,0,1.4,0.4,1.5,1.5
		c0.2,2.6-0.8,5.2-2.7,7.7c-1.9,2.5-4.7,3.7-8.2,3.7c-3.1,0-5.8-1.1-8-3.3c-2.2-2.3-3.3-5.8-3.3-10.5V29.6c0-4.7,1.1-8.3,3.3-10.5
		c2.2-2.3,4.9-3.4,8-3.4c3.1,0,5.8,1.1,8,3.4c2.2,2.2,3.3,5.7,3.3,10.5v5c0,1.2-0.4,1.5-1.6,1.5h-12c-1.1,0-1.5,0.4-1.5,1.5V41.4z
		 M158.6,22.7c-2.3,0-3.6,1.7-3.8,5.3c0,1.5,0,1.5,1.5,1.5h4.5c1.5,0,1.5,0,1.5-1.5C162.3,24.4,161.1,22.7,158.6,22.7z"/>
	<path d="M187.9,22.8c-1.8,0-2.9,0.8-3.3,2.6c-0.4,1.7-0.5,2.6-0.5,5.1v21.7c0,1.1-0.4,1.5-1.5,1.5h-4.5c-1.1,0-1.5-0.4-1.5-1.5
		V17.6c0-1.1,0.4-1.5,1.5-1.5h4.5c1.1,0,1.5,0.4,1.5,1.5v0.9c1.5-1.5,3.3-2.3,5.4-2.4h0.8c1.1,0,1.5,0.4,1.5,1.5v4.1
		c0,1.2-0.4,1.8-1.5,1.5C189.4,23,188.5,22.8,187.9,22.8z"/>
	<path d="M217.8,40.2c0,4.7-1.1,8.3-3.3,10.5c-2.2,2.2-4.9,3.3-8,3.3s-5.8-1.1-8-3.3c-2.2-2.3-3.3-5.8-3.3-10.5V29.6
		c0-4.7,1.1-8.3,3.3-10.5c2.2-2.3,4.9-3.4,8-3.4s5.8,1.1,8,3.4c2.2,2.2,3.3,5.7,3.3,10.5V40.2z M210.3,28.4c0-3.8-1.3-5.7-3.8-5.7
		s-3.8,1.9-3.8,5.7v13c0,3.8,1.3,5.7,3.8,5.7s3.8-1.9,3.8-5.7V28.4z"/>
</g>
<g>
	<path d="M6.6,76.6v0.7c0,0.4-0.1,0.5-0.5,0.5c-1.2,0-1.9-0.4-2.3-1.2c-0.2-0.6-0.4-1-0.5-1.9c0-0.9-0.1-1.2-0.1-2.4v-5.8
		c0-0.2-0.1-0.3-0.3-0.3c-0.4,0-0.5-0.1-0.5-0.5v-0.6c0-0.4,0.1-0.5,0.5-0.5c0.2,0,0.3-0.1,0.3-0.3v-2.5c0-0.4,0.1-0.5,0.5-0.5h0.8
		c0.4,0,0.5,0.1,0.5,0.5v2.5c0,0.2,0.1,0.3,0.3,0.3h0.5c0.4,0,0.5,0.1,0.5,0.5v0.6c0,0.4-0.1,0.5-0.5,0.5H5.3
		c-0.2,0-0.3,0.1-0.3,0.3v6.7c0,1.1,0,1.4,0.1,2C5.3,75.8,5.6,76,6,76.1C6.4,76.1,6.6,76.2,6.6,76.6z"/>
	<path d="M8.6,73.1v-8.4c0-0.4,0.1-0.5,0.5-0.5h0.8c0.4,0,0.5,0.1,0.5,0.5v9c0,1.7,0.8,2.5,1.9,2.5c1.1,0,1.9-0.8,1.9-2.6v-8.9
		c0-0.4,0.1-0.5,0.5-0.5h0.8c0.4,0,0.5,0.1,0.5,0.5v12.6c0,0.4-0.1,0.5-0.5,0.5h-0.8c-0.4,0-0.5-0.1-0.5-0.5v-0.5
		c-0.5,0.7-1.3,1.1-2.2,1.2C10,78,8.6,76.5,8.6,73.1z"/>
	<path d="M26.3,79.5c0.2-0.1,0.4,0,0.5,0.2c0.4,0.9,1,1.4,1.9,1.4c1.1,0,2.1-0.9,2.1-2.5v-1.8c-0.5,0.7-1.3,1.1-2.2,1.2
		c-2.1,0.1-3.5-1.4-3.5-4.8v-4.3c0-3.4,1.4-4.9,3.5-4.8c0.9,0,1.7,0.4,2.2,1.2v-0.5c0-0.4,0.1-0.5,0.5-0.5h0.8
		c0.4,0,0.5,0.1,0.5,0.5V78c0,3.4-1.7,4.8-3.9,4.8c-1.8,0-3-0.8-3.6-2.5c-0.1-0.2-0.1-0.4,0.2-0.5L26.3,79.5z M30.8,68.3
		c0-1.7-0.8-2.5-1.9-2.5c-1.1,0-1.9,0.8-1.9,2.5v5.3c0,1.7,0.8,2.5,1.9,2.5c1.1,0,1.9-0.8,1.9-2.6V68.3z"/>
	<path d="M35.4,73.1v-8.4c0-0.4,0.1-0.5,0.5-0.5h0.8c0.4,0,0.5,0.1,0.5,0.5v9c0,1.7,0.8,2.5,1.9,2.5c1.1,0,1.9-0.8,1.9-2.6v-8.9
		c0-0.4,0.1-0.5,0.5-0.5h0.8c0.4,0,0.5,0.1,0.5,0.5v12.6c0,0.4-0.1,0.5-0.5,0.5h-0.8c-0.4,0-0.5-0.1-0.5-0.5v-0.5
		c-0.5,0.7-1.3,1.1-2.2,1.2C36.8,78,35.4,76.5,35.4,73.1z"/>
	<path d="M47.8,77.3c0,0.4-0.1,0.5-0.5,0.5h-0.8c-0.4,0-0.5-0.1-0.5-0.5V64.7c0-0.4,0.1-0.5,0.5-0.5h0.8c0.4,0,0.5,0.1,0.5,0.5V77.3
		z M46.7,62.8c-0.2,0-0.3-0.1-0.3-0.3v-2.7c0-0.4,0.1-0.6,0.6-0.6h1c0.4,0,0.5,0.2,0.4,0.7l-0.8,2.3c-0.1,0.4-0.2,0.5-0.5,0.5H46.7z
		"/>
	<path d="M53.8,77.9c-2.1,0-3.4-1.3-3.4-3.6v-0.8c0-4.1,4.9-3,5.4-5.3c0.3-1.3-0.4-2.4-1.6-2.4c-0.9,0-1.7,0.7-1.7,2.1
		c0,0.5-0.1,0.5-0.5,0.5h-0.8c-0.4,0-0.5-0.1-0.5-0.5c-0.1-1,0.2-1.9,0.9-2.7c0.7-0.8,1.6-1.2,2.6-1.2c0.9,0,1.7,0.3,2.4,1
		c0.7,0.6,1.1,1.6,1.1,2.8v7.8c0,0.4,0.1,0.9,0.2,1.6c0.1,0.4-0.1,0.5-0.5,0.5h-0.6c-0.4,0-0.5-0.1-0.6-0.9
		C55.6,77.6,54.8,77.9,53.8,77.9z M55.9,74.1v-3.5c-0.2,0.1-0.6,0.2-1.1,0.4c-0.5,0.2-0.8,0.3-1,0.4c-0.7,0.4-1.6,1.1-1.5,2.4v0.3
		c0,1.5,0.7,2.2,2,2.1C55.3,76.1,55.9,75.6,55.9,74.1z"/>
	<path d="M74,77.3c0,0.4-0.1,0.5-0.5,0.5h-0.8c-0.4,0-0.5-0.1-0.5-0.5v-0.5c-0.5,0.7-1.3,1.1-2.2,1.2c-2.1,0.1-3.5-1.4-3.5-4.8v-4.3
		c0-3.4,1.4-4.9,3.5-4.8c0.9,0,1.7,0.4,2.2,1.2v-6c0-0.4,0.1-0.5,0.5-0.5h0.8c0.4,0,0.5,0.1,0.5,0.5V77.3z M72.1,68.3
		c0-1.8-0.8-2.6-1.9-2.6c-1.1,0-1.9,0.8-1.9,2.5v5.3c0,1.7,0.8,2.5,1.9,2.5c1.1,0,1.9-0.9,1.9-2.5V68.3z"/>
	<path d="M78.6,73.6c0,1.7,0.7,2.5,1.8,2.5c1,0,1.7-0.7,1.8-2.1c0-0.5,0.1-0.5,0.5-0.5h0.7c0.5,0,0.6,0.2,0.5,0.8
		c-0.2,2.1-1.4,3.6-3.6,3.6c-2.2,0-3.7-1.4-3.7-4.8v-4.3c0-3.4,1.5-4.8,3.7-4.8s3.7,1.4,3.7,4.8v1.7c0,0.4-0.1,0.5-0.5,0.5h-4.4
		c-0.5,0-0.5,0-0.5,0.5V73.6z M78.6,68.8c0,0.5,0,0.5,0.5,0.5h2.5c0.5,0,0.5,0,0.5-0.5v-0.5c0-1.7-0.7-2.5-1.8-2.5
		c-1.1,0-1.8,0.8-1.8,2.5V68.8z"/>
	<path d="M92.5,68.8c0-3.4,1.5-4.8,3.7-4.8s3.7,1.4,3.7,4.8v4.3c0,3.4-1.5,4.8-3.7,4.8s-3.7-1.4-3.7-4.8V68.8z M98,68.3
		c0-1.7-0.7-2.5-1.8-2.5c-1.1,0-1.8,0.8-1.8,2.5v5.3c0,1.7,0.7,2.5,1.8,2.5c1.1,0,1.8-0.8,1.8-2.5V68.3z"/>
	<path d="M102.3,68.8c0-3.4,1.5-4.8,3.7-4.8c2.2,0,3.4,1.5,3.6,3.6c0,0.6-0.1,0.8-0.5,0.8h-0.7c-0.4,0-0.5-0.1-0.5-0.5
		c-0.1-1.3-0.8-2.1-1.8-2.1c-1.1,0-1.8,0.8-1.8,2.5v5.3c0,1.7,0.7,2.5,1.8,2.5c1,0,1.7-0.7,1.8-2.1c0-0.5,0.1-0.5,0.5-0.5h0.7
		c0.5,0,0.6,0.2,0.5,0.8c-0.2,2.1-1.4,3.6-3.6,3.6c-2.2,0-3.7-1.4-3.7-4.8V68.8z"/>
	<path d="M113.2,60.8c0.6,0,1.1,0.5,1.1,1.1c0,0.6-0.4,1.1-1.1,1.1C111.9,62.9,111.9,60.7,113.2,60.8z M114.2,77.3
		c0,0.4-0.1,0.5-0.5,0.5h-0.8c-0.4,0-0.5-0.1-0.5-0.5V64.7c0-0.4,0.1-0.5,0.5-0.5h0.8c0.4,0,0.5,0.1,0.5,0.5V77.3z"/>
	<path d="M116.9,68.8c0-3.4,1.5-4.8,3.7-4.8s3.7,1.4,3.7,4.8v4.3c0,3.4-1.5,4.8-3.7,4.8s-3.7-1.4-3.7-4.8V68.8z M122.4,68.3
		c0-1.7-0.7-2.5-1.8-2.5c-1.1,0-1.8,0.8-1.8,2.5v5.3c0,1.7,0.7,2.5,1.8,2.5c1.1,0,1.8-0.8,1.8-2.5V68.3z"/>
</g>
<g>
	<path class="st0" d="M141.9,68.8c0-3.4,1.5-4.8,3.7-4.8c2.2,0,3.4,1.5,3.6,3.6c0,0.6-0.1,0.8-0.5,0.8h-0.7c-0.4,0-0.5-0.1-0.5-0.5
		c-0.1-1.3-0.8-2.1-1.8-2.1c-1.1,0-1.8,0.8-1.8,2.5v5.3c0,1.7,0.7,2.5,1.8,2.5c1,0,1.7-0.7,1.8-2.1c0-0.5,0.1-0.5,0.5-0.5h0.7
		c0.5,0,0.6,0.2,0.5,0.8c-0.2,2.1-1.4,3.6-3.6,3.6c-2.2,0-3.7-1.4-3.7-4.8V68.8z"/>
	<path class="st0" d="M151.7,73.1v-8.4c0-0.4,0.1-0.5,0.5-0.5h0.8c0.4,0,0.5,0.1,0.5,0.5v9c0,1.7,0.8,2.5,1.9,2.5
		c1.1,0,1.9-0.8,1.9-2.6v-8.9c0-0.4,0.1-0.5,0.5-0.5h0.8c0.4,0,0.5,0.1,0.5,0.5v12.6c0,0.4-0.1,0.5-0.5,0.5H158
		c-0.4,0-0.5-0.1-0.5-0.5v-0.5c-0.5,0.7-1.3,1.1-2.2,1.2C153.1,78,151.7,76.5,151.7,73.1z"/>
	<path class="st0" d="M165.5,76.6v0.7c0,0.4-0.1,0.5-0.5,0.5c-1.2,0-1.9-0.4-2.3-1.2c-0.2-0.6-0.4-1-0.5-1.9c0-0.9-0.1-1.2-0.1-2.4
		V59.2c0-0.4,0.1-0.5,0.5-0.5h0.8c0.4,0,0.5,0.1,0.5,0.5v14c0,1.1,0,1.4,0.1,2c0.1,0.6,0.4,0.8,0.9,0.8
		C165.4,76.1,165.5,76.2,165.5,76.6z"/>
	<path class="st0" d="M171.1,76.6v0.7c0,0.4-0.1,0.5-0.5,0.5c-1.2,0-1.9-0.4-2.3-1.2c-0.2-0.6-0.4-1-0.5-1.9c0-0.9-0.1-1.2-0.1-2.4
		v-5.8c0-0.2-0.1-0.3-0.3-0.3c-0.4,0-0.5-0.1-0.5-0.5v-0.6c0-0.4,0.1-0.5,0.5-0.5c0.2,0,0.3-0.1,0.3-0.3v-2.5c0-0.4,0.1-0.5,0.5-0.5
		h0.8c0.4,0,0.5,0.1,0.5,0.5v2.5c0,0.2,0.1,0.3,0.3,0.3h0.5c0.4,0,0.5,0.1,0.5,0.5v0.6c0,0.4-0.1,0.5-0.5,0.5h-0.5
		c-0.2,0-0.3,0.1-0.3,0.3v6.7c0,1.1,0,1.4,0.1,2c0.1,0.6,0.4,0.8,0.9,0.8C171,76.1,171.1,76.2,171.1,76.6z"/>
	<path class="st0" d="M173.2,73.1v-8.4c0-0.4,0.1-0.5,0.5-0.5h0.8c0.4,0,0.5,0.1,0.5,0.5v9c0,1.7,0.8,2.5,1.9,2.5
		c1.1,0,1.9-0.8,1.9-2.6v-8.9c0-0.4,0.1-0.5,0.5-0.5h0.8c0.4,0,0.5,0.1,0.5,0.5v12.6c0,0.4-0.1,0.5-0.5,0.5h-0.8
		c-0.4,0-0.5-0.1-0.5-0.5v-0.5c-0.5,0.7-1.3,1.1-2.2,1.2C174.6,78,173.2,76.5,173.2,73.1z"/>
	<path class="st0" d="M187,66c-0.6,0-1,0.3-1.2,0.9c-0.1,0.6-0.2,1-0.2,1.9v8.5c0,0.4-0.1,0.5-0.5,0.5h-0.8c-0.4,0-0.5-0.1-0.5-0.5
		V64.7c0-0.4,0.1-0.5,0.5-0.5h0.8c0.4,0,0.5,0.1,0.5,0.5V65c0.5-0.5,1.2-0.8,2-0.9h0.1c0.4,0,0.5,0.1,0.5,0.5v0.9
		c0,0.4-0.1,0.7-0.5,0.5C187.3,66,187.1,66,187,66z"/>
	<path class="st0" d="M192.9,77.9c-2.1,0-3.4-1.3-3.4-3.6v-0.8c0-4.1,4.9-3,5.4-5.3c0.3-1.3-0.4-2.4-1.6-2.4c-0.9,0-1.7,0.7-1.7,2.1
		c0,0.5-0.1,0.5-0.5,0.5h-0.8c-0.4,0-0.5-0.1-0.5-0.5c-0.1-1,0.2-1.9,0.9-2.7c0.7-0.8,1.6-1.2,2.6-1.2c0.9,0,1.7,0.3,2.4,1
		c0.7,0.6,1.1,1.6,1.1,2.8v7.8c0,0.4,0.1,0.9,0.2,1.6c0.1,0.4-0.1,0.5-0.5,0.5h-0.6c-0.4,0-0.5-0.1-0.6-0.9
		C194.6,77.6,193.8,77.9,192.9,77.9z M194.9,74.1v-3.5c-0.2,0.1-0.6,0.2-1.1,0.4c-0.5,0.2-0.8,0.3-1,0.4c-0.7,0.4-1.6,1.1-1.5,2.4
		v0.3c0,1.5,0.7,2.2,2,2.1C194.4,76.1,194.9,75.6,194.9,74.1z"/>
	<path class="st0" d="M202.9,76.6v0.7c0,0.4-0.1,0.5-0.5,0.5c-1.2,0-1.9-0.4-2.3-1.2c-0.2-0.6-0.4-1-0.5-1.9c0-0.9-0.1-1.2-0.1-2.4
		V59.2c0-0.4,0.1-0.5,0.5-0.5h0.8c0.4,0,0.5,0.1,0.5,0.5v14c0,1.1,0,1.4,0.1,2c0.1,0.6,0.4,0.8,0.9,0.8
		C202.8,76.1,202.9,76.2,202.9,76.6z"/>
</g>
</svg>
