<?xml version="1.0" encoding="utf-8"?>
<!-- Generator: Adobe Illustrator 21.0.0, SVG Export Plug-In . SVG Version: 6.00 Build 0)  -->
<svg version="1.1" id="Capa_1" xmlns="http://www.w3.org/2000/svg" xmlns:xlink="http://www.w3.org/1999/xlink" x="0px" y="0px"
	 viewBox="0 0 225 72" style="enable-background:new 0 0 225 72;" xml:space="preserve">
<style type="text/css">
	.st0{fill:#0071CE;}
</style>
<path class="st0" d="M220.6,3.9l-12.7,9.3c-0.6,0.4-0.4,1.3,0.3,1.5c0,0,2.4-0.5,5.6,1.6c3.2,2.1,3.9,4.4,3.9,4.4
	c0.5,0.5,1.4,0.3,1.5-0.4L222,4.8C222.1,4,221.3,3.5,220.6,3.9z"/>
<g>
	<path d="M11.4,43.1c0,3.8,1.3,5.7,3.7,5.7c1.8,0,3.5-1,3.6-4c0.1-1.3,0.1-1.9,1.5-1.9h4.2c1.1,0,1.4,0.4,1.5,1.5
		c0.1,2.6-0.7,5.1-2.7,7.6c-1.9,2.5-4.6,3.7-8.1,3.7c-3.1,0-5.7-1.1-7.9-3.3C5.1,50.1,4,46.6,4,41.9V31.5c0-4.7,1.1-8.2,3.3-10.4
		c2.2-2.2,4.8-3.4,7.9-3.4c3.1,0,5.7,1.1,7.9,3.4c2.2,2.2,3.3,5.7,3.3,10.4v5c0,1.2-0.4,1.5-1.6,1.5H12.9c-1.1,0-1.5,0.4-1.5,1.5
		V43.1z M15.2,24.7c-2.3,0-3.6,1.7-3.7,5.2c0,1.5,0,1.5,1.5,1.5h4.5c1.5,0,1.5,0,1.5-1.5C18.8,26.4,17.6,24.7,15.2,24.7z"/>
	<path d="M32.7,4.7c0-1.1,0.4-1.5,1.5-1.5h4.5c1.1,0,1.5,0.4,1.5,1.5v35.9c0,2.4,0,3.1,0.2,4.6c0.4,2.2,1.3,2.9,3.8,3.1
		c1.1,0.1,1.5,0.4,1.5,1.5v4c0,1.1-0.4,1.5-1.5,1.5c-4.2,0-7.2-1-8.9-3.2c-1.7-2.2-2.5-6.1-2.5-11.7V4.7z"/>
	<path d="M83.7,18.1c0.8,0,1.4,0,1.3,1.3L78,54c-0.2,1.1-0.4,1.3-1.6,1.3h-4c-1.2,0-1.4-0.2-1.6-1.3l-6.9-34.7
		c-0.2-1.1,0.3-1.3,1.3-1.3h4.5c0.9,0,1.5,0,1.6,1.1l2.9,18c0.1,0.4,0.5,0.4,0.6,0l2.9-18c0.1-1.1,0.7-1.1,1.6-1.1H83.7z"/>
	<path d="M93.8,6.4c2.3,0,4.2,1.9,4.2,4.2c0,2.4-1.9,4.2-4.2,4.2c-2.4,0-4.2-1.8-4.2-4.2C89.6,8.3,91.4,6.4,93.8,6.4z M91.6,55.4
		c-1.1,0-1.5-0.4-1.5-1.5V19.6c0-1.1,0.4-1.5,1.5-1.5H96c1.1,0,1.5,0.4,1.5,1.5v34.3c0,1.1-0.4,1.5-1.5,1.5H91.6z"/>
	<path d="M126.4,50.2c0.1,1,0.2,2.2,0.6,3.7c0.2,1-0.3,1.5-1.5,1.5h-4.2c-1.1,0-1.4-0.4-1.6-2.2c-1.6,1.7-3.7,2.5-6.2,2.5
		c-5.6,0-9.5-3.6-9.5-9.9v-3.3c0.2-4.1,1.5-6.4,4.1-7.8c1-0.6,1.8-1,2.4-1.2l2.7-0.9c1.2-0.4,2-0.7,2.4-0.8c2.2-0.8,3.4-2.1,3.4-3.7
		c0-1.8-1.3-3.4-3.4-3.4c-2,0-3.6,1.7-3.5,4.4c0.1,1.1-0.3,1.5-1.5,1.5h-4.2c-1.1,0-1.4-0.4-1.5-1.5c-0.1-3.1,0.9-5.7,3-7.9
		c2.1-2.2,4.6-3.4,7.7-3.4c2.9,0,5.4,1,7.6,3.2c2.2,2.1,3.2,4.8,3.2,8.3V50.2z M118.9,42.8v-6c-0.4,0.1-1,0.4-1.9,0.8
		c-1.8,0.8-2,0.8-3.3,1.6c-1.4,0.8-2.2,2.1-2.2,3.9v0.6c0,3.4,1.3,5,3.7,5C118.1,48.8,118.9,46.6,118.9,42.8z"/>
	<path d="M133.2,59.2c0.3-1.7,0.3-2.6,0.3-5.5V19.6c0-1.1,0.4-1.5,1.5-1.5h4.5c1.1,0,1.5,0.4,1.5,1.5v36.1c0,9.5-3.7,13.1-10,13.1
		c-1.1,0-1.5-0.4-1.5-1.5v-4c0-1.1,0.4-1.4,1.5-1.5C132.1,61.7,132.9,61,133.2,59.2z M137.2,6.4c2.3,0,4.2,1.9,4.2,4.2
		c0,2.4-1.9,4.2-4.2,4.2c-2.4,0-4.2-1.8-4.2-4.2C133,8.3,134.8,6.4,137.2,6.4z"/>
	<path d="M155.1,43.1c0,3.8,1.3,5.7,3.7,5.7c1.8,0,3.5-1,3.6-4c0.1-1.3,0.1-1.9,1.5-1.9h4.2c1.1,0,1.4,0.4,1.5,1.5
		c0.1,2.6-0.7,5.1-2.7,7.6c-1.9,2.5-4.6,3.7-8.1,3.7c-3.1,0-5.7-1.1-7.9-3.3c-2.2-2.2-3.3-5.7-3.3-10.4V31.5c0-4.7,1.1-8.2,3.3-10.4
		c2.2-2.2,4.8-3.4,7.9-3.4c3.1,0,5.7,1.1,7.9,3.4c2.2,2.2,3.3,5.7,3.3,10.4v5c0,1.2-0.4,1.5-1.6,1.5h-11.9c-1.1,0-1.5,0.4-1.5,1.5
		V43.1z M158.8,24.7c-2.3,0-3.6,1.7-3.7,5.2c0,1.5,0,1.5,1.5,1.5h4.5c1.5,0,1.5,0,1.5-1.5C162.5,26.4,161.3,24.7,158.8,24.7z"/>
	<path d="M187.9,24.8c-1.8,0-2.9,0.7-3.3,2.5c-0.4,1.7-0.4,2.6-0.4,5.1v21.5c0,1.1-0.4,1.5-1.5,1.5h-4.5c-1.1,0-1.5-0.4-1.5-1.5
		V19.6c0-1.1,0.4-1.5,1.5-1.5h4.5c1.1,0,1.5,0.4,1.5,1.5v0.9c1.5-1.5,3.3-2.3,5.4-2.4h0.7c1.1,0,1.5,0.4,1.5,1.5v4.1
		c0,1.2-0.4,1.8-1.5,1.5C189.3,25,188.5,24.8,187.9,24.8z"/>
	<path d="M217.5,41.9c0,4.7-1.1,8.2-3.3,10.4c-2.2,2.2-4.8,3.3-7.9,3.3c-3.1,0-5.7-1.1-7.9-3.3c-2.2-2.2-3.3-5.7-3.3-10.4V31.5
		c0-4.7,1.1-8.2,3.3-10.4c2.2-2.2,4.8-3.4,7.9-3.4c3.1,0,5.7,1.1,7.9,3.4c2.2,2.2,3.3,5.7,3.3,10.4V41.9z M210,30.3
		c0-3.8-1.3-5.7-3.7-5.7s-3.7,1.9-3.7,5.7v12.8c0,3.8,1.3,5.7,3.7,5.7s3.7-1.9,3.7-5.7V30.3z"/>
</g>
</svg>
