<?xml version="1.0" encoding="utf-8"?>
<!-- Generator: Adobe Illustrator 21.0.0, SVG Export Plug-In . SVG Version: 6.00 Build 0)  -->
<svg version="1.1" id="Capa_1" xmlns="http://www.w3.org/2000/svg" xmlns:xlink="http://www.w3.org/1999/xlink" x="0px" y="0px"
	 viewBox="0 0 189 70" style="enable-background:new 0 0 189 70;" xml:space="preserve">
<style type="text/css">
	.st0{fill:#FFFFFF;}
</style>
<g>
	<path class="st0" d="M187.3,0.7l-10.9,8c-0.5,0.4-0.4,1.2,0.2,1.3c0,0,2-0.4,4.8,1.4s3.3,3.8,3.3,3.8c0.4,0.5,1.2,0.2,1.3-0.4
		l2.4-13.4C188.6,0.8,187.8,0.3,187.3,0.7z"/>
	<g>
		<path class="st0" d="M7,34.5c0,3.3,1.1,4.9,3.2,4.9c1.5,0,3-0.9,3.1-3.4c0.1-1.1,0.1-1.7,1.3-1.7h3.7c1,0,1.2,0.3,1.3,1.3
			c0.1,2.2-0.6,4.4-2.3,6.6c-1.6,2.1-4,3.1-7,3.1c-2.6,0-4.9-1-6.8-2.8c-1.9-1.9-2.8-4.9-2.8-9v-9c0-4,1-7.1,2.8-8.9
			c1.9-1.9,4.2-2.9,6.8-2.9s4.9,1,6.8,2.9c1.9,1.9,2.8,4.9,2.8,8.9v4.3c0,1-0.3,1.3-1.3,1.3H8.3c-1,0-1.3,0.3-1.3,1.3V34.5z
			 M10.2,18.6c-2,0-3.1,1.5-3.2,4.5c0,1.3,0,1.3,1.3,1.3h3.9c1.3,0,1.3,0,1.3-1.3C13.3,20.1,12.3,18.6,10.2,18.6z"/>
		<path class="st0" d="M25.3,1.4c0-1,0.3-1.3,1.3-1.3h3.9c1,0,1.3,0.3,1.3,1.3v31c0,2.1,0,2.6,0.2,4c0.4,1.9,1.2,2.5,3.3,2.7
			c1,0.1,1.3,0.3,1.3,1.3v3.5c0,1-0.3,1.3-1.3,1.3c-3.7,0-6.2-0.9-7.7-2.8c-1.5-1.9-2.2-5.3-2.2-10.1V1.4z"/>
		<path class="st0" d="M69.2,12.9c0.7,0,1.2,0,1.1,1.1l-6,29.9c-0.2,1-0.4,1.2-1.4,1.2h-3.5c-1,0-1.2-0.2-1.4-1.2l-6-29.9
			c-0.2-1,0.3-1.1,1.1-1.1H57c0.8,0,1.3,0,1.4,1l2.5,15.5c0.1,0.3,0.4,0.3,0.5,0L64,13.9c0.1-1,0.6-1,1.4-1H69.2z"/>
		<path class="st0" d="M78,2.9c2,0,3.6,1.6,3.6,3.6C81.6,8.5,80,10,78,10c-2.1,0-3.6-1.5-3.6-3.6C74.4,4.5,75.9,2.9,78,2.9z
			 M76,45.1c-1,0-1.3-0.3-1.3-1.3V14.2c0-1,0.3-1.3,1.3-1.3h3.9c1,0,1.3,0.3,1.3,1.3v29.6c0,1-0.3,1.3-1.3,1.3H76z"/>
		<path class="st0" d="M106,40.6c0.1,0.9,0.2,1.9,0.5,3.1c0.2,0.8-0.3,1.3-1.3,1.3h-3.6c-1,0-1.2-0.3-1.4-1.9
			c-1.3,1.5-3.1,2.2-5.3,2.2c-4.8,0-8.2-3.1-8.2-8.5v-2.8c0.2-3.5,1.3-5.5,3.5-6.7c0.8-0.5,1.5-0.8,2.1-1l2.3-0.8
			c1-0.3,1.7-0.6,2.1-0.7c1.9-0.7,2.9-1.8,2.9-3.2c0-1.5-1.2-2.9-2.9-2.9s-3.1,1.5-3,3.8c0.1,1-0.3,1.3-1.3,1.3h-3.6
			c-1,0-1.2-0.3-1.3-1.3c-0.1-2.6,0.8-4.9,2.6-6.8c1.8-1.9,4-2.9,6.6-2.9c2.5,0,4.7,0.9,6.6,2.8c1.9,1.8,2.8,4.2,2.8,7.1V40.6z
			 M99.6,34.3v-5.1c-0.3,0.1-0.8,0.4-1.7,0.7c-1.5,0.7-1.7,0.7-2.8,1.4c-1.2,0.7-1.9,1.8-1.9,3.3v0.5c0,2.9,1.1,4.3,3.2,4.3
			C98.9,39.4,99.6,37.5,99.6,34.3z"/>
		<path class="st0" d="M111.9,48.3c0.3-1.5,0.3-2.2,0.3-4.8V14.2c0-1,0.3-1.3,1.3-1.3h3.9c1,0,1.3,0.3,1.3,1.3v31.1
			c0,8.2-3.2,11.3-8.6,11.3c-1,0-1.3-0.3-1.3-1.3v-3.5c0-1,0.3-1.2,1.3-1.3C111,50.5,111.6,49.9,111.9,48.3z M115.4,2.9
			c2,0,3.6,1.6,3.6,3.6c0,2.1-1.6,3.6-3.6,3.6c-2.1,0-3.6-1.5-3.6-3.6C111.8,4.5,113.3,2.9,115.4,2.9z"/>
		<path class="st0" d="M130.8,34.5c0,3.3,1.1,4.9,3.2,4.9c1.5,0,3-0.9,3.1-3.4c0.1-1.1,0.1-1.7,1.3-1.7h3.7c1,0,1.2,0.3,1.3,1.3
			c0.1,2.2-0.6,4.4-2.3,6.6c-1.6,2.1-4,3.1-7,3.1c-2.6,0-4.9-1-6.8-2.8c-1.9-1.9-2.8-4.9-2.8-9v-9c0-4,1-7.1,2.8-8.9
			c1.9-1.9,4.2-2.9,6.8-2.9c2.6,0,4.9,1,6.8,2.9c1.9,1.9,2.8,4.9,2.8,8.9v4.3c0,1-0.3,1.3-1.3,1.3h-10.2c-1,0-1.3,0.3-1.3,1.3V34.5z
			 M134,18.6c-2,0-3.1,1.5-3.2,4.5c0,1.3,0,1.3,1.3,1.3h3.9c1.3,0,1.3,0,1.3-1.3C137.1,20.1,136.1,18.6,134,18.6z"/>
		<path class="st0" d="M159,18.7c-1.5,0-2.5,0.6-2.8,2.2c-0.3,1.5-0.4,2.2-0.4,4.4v18.5c0,1-0.3,1.3-1.3,1.3h-3.9
			c-1,0-1.3-0.3-1.3-1.3V14.2c0-1,0.3-1.3,1.3-1.3h3.9c1,0,1.3,0.3,1.3,1.3V15c1.3-1.3,2.8-2,4.6-2.1h0.6c1,0,1.3,0.3,1.3,1.3v3.5
			c0,1-0.3,1.5-1.3,1.3C160.3,18.8,159.6,18.7,159,18.7z"/>
		<path class="st0" d="M184.6,33.5c0,4-1,7.1-2.8,9c-1.9,1.9-4.2,2.8-6.8,2.8c-2.6,0-4.9-1-6.8-2.8c-1.9-1.9-2.8-4.9-2.8-9v-9
			c0-4,1-7.1,2.8-8.9c1.9-1.9,4.2-2.9,6.8-2.9c2.6,0,4.9,1,6.8,2.9c1.9,1.9,2.8,4.9,2.8,8.9V33.5z M178.1,23.5
			c0-3.3-1.1-4.9-3.2-4.9s-3.2,1.6-3.2,4.9v11.1c0,3.3,1.1,4.9,3.2,4.9s3.2-1.6,3.2-4.9V23.5z"/>
	</g>
	<g>
		<path class="st0" d="M4.3,64.6v0.6c0,0.4-0.1,0.5-0.5,0.5c-1,0-1.7-0.4-2-1.1C1.6,64,1.5,63.8,1.4,63c0-0.8,0-1.1,0-2v-5
			c0-0.2-0.1-0.2-0.2-0.2c-0.4,0-0.5-0.1-0.5-0.5v-0.5c0-0.4,0.1-0.5,0.5-0.5c0.2,0,0.2-0.1,0.2-0.2v-2.2c0-0.4,0.1-0.5,0.5-0.5h0.7
			c0.4,0,0.5,0.1,0.5,0.5v2.2c0,0.2,0.1,0.2,0.2,0.2h0.4c0.4,0,0.5,0.1,0.5,0.5v0.5c0,0.4-0.1,0.5-0.5,0.5H3.2C3,55.8,3,55.8,3,56
			v5.7c0,0.9,0,1.2,0.1,1.7c0.1,0.5,0.4,0.7,0.7,0.7C4.2,64.2,4.3,64.3,4.3,64.6z"/>
		<path class="st0" d="M6,61.6v-7.2C6,54.1,6.1,54,6.5,54h0.7c0.4,0,0.5,0.1,0.5,0.5v7.6c0,1.5,0.7,2.2,1.6,2.2
			c0.9,0,1.6-0.7,1.6-2.2v-7.6c0-0.4,0.1-0.5,0.5-0.5H12c0.4,0,0.5,0.1,0.5,0.5v10.7c0,0.4-0.1,0.5-0.5,0.5h-0.7
			c-0.4,0-0.5-0.1-0.5-0.5v-0.4c-0.4,0.6-1.1,1-1.9,1C7.2,65.8,6,64.5,6,61.6z"/>
		<path class="st0" d="M21.1,67.1c0.2-0.1,0.4,0,0.4,0.2c0.3,0.8,0.8,1.2,1.6,1.2c1,0,1.8-0.7,1.8-2.2v-1.5c-0.4,0.6-1.1,1-1.9,1
			c-1.8,0.1-3-1.2-3-4.1V58c0-2.9,1.2-4.2,3-4.1c0.8,0,1.4,0.4,1.9,1v-0.4c0-0.4,0.1-0.5,0.5-0.5H26c0.4,0,0.5,0.1,0.5,0.5v11.4
			c0,2.9-1.5,4.1-3.4,4.1c-1.5,0-2.6-0.7-3.1-2.1c-0.1-0.2,0-0.4,0.2-0.4L21.1,67.1z M24.9,57.5c0-1.4-0.7-2.2-1.6-2.2
			c-0.9,0-1.6,0.7-1.6,2.2v4.5c0,1.5,0.7,2.2,1.6,2.2c0.9,0,1.6-0.7,1.6-2.2V57.5z"/>
		<path class="st0" d="M28.9,61.6v-7.2c0-0.4,0.1-0.5,0.5-0.5H30c0.4,0,0.5,0.1,0.5,0.5v7.6c0,1.5,0.7,2.2,1.6,2.2
			c0.9,0,1.6-0.7,1.6-2.2v-7.6c0-0.4,0.1-0.5,0.5-0.5h0.7c0.4,0,0.5,0.1,0.5,0.5v10.7c0,0.4-0.1,0.5-0.5,0.5h-0.7
			c-0.4,0-0.5-0.1-0.5-0.5v-0.4c-0.4,0.6-1.1,1-1.9,1C30,65.8,28.9,64.5,28.9,61.6z"/>
		<path class="st0" d="M39.5,65.2c0,0.4-0.1,0.5-0.5,0.5h-0.7c-0.4,0-0.5-0.1-0.5-0.5V54.4c0-0.4,0.1-0.5,0.5-0.5H39
			c0.4,0,0.5,0.1,0.5,0.5V65.2z M38.5,52.8c-0.2,0-0.2-0.1-0.2-0.2v-2.3c0-0.4,0.1-0.5,0.5-0.5h0.9c0.4,0,0.5,0.2,0.3,0.6l-0.7,2
			c-0.1,0.4-0.2,0.4-0.4,0.4H38.5z"/>
		<path class="st0" d="M44.6,65.7c-1.8,0-2.9-1.1-2.9-3.1v-0.7c0-3.5,4.2-2.6,4.6-4.5c0.3-1.1-0.4-2-1.4-2c-0.8,0-1.5,0.6-1.5,1.8
			c0,0.4-0.1,0.5-0.4,0.5h-0.7c-0.4,0-0.4-0.1-0.5-0.5c-0.1-0.9,0.2-1.6,0.8-2.3c0.6-0.7,1.3-1,2.2-1c0.8,0,1.4,0.3,2.1,0.8
			c0.6,0.5,1,1.4,1,2.4v6.7c0,0.4,0.1,0.8,0.2,1.4c0.1,0.3-0.1,0.5-0.5,0.5h-0.5c-0.4,0-0.4-0.1-0.5-0.7
			C46.1,65.4,45.4,65.7,44.6,65.7z M46.4,62.4v-3c-0.2,0.1-0.5,0.2-0.9,0.4c-0.4,0.2-0.7,0.3-0.9,0.4c-0.6,0.3-1.4,0.9-1.3,2v0.3
			c0,1.2,0.6,1.9,1.7,1.8C45.9,64.2,46.4,63.7,46.4,62.4z"/>
		<path class="st0" d="M61.8,65.2c0,0.4-0.1,0.5-0.5,0.5h-0.7c-0.4,0-0.5-0.1-0.5-0.5v-0.4c-0.4,0.6-1.1,1-1.9,1
			c-1.8,0.1-3-1.2-3-4.1V58c0-2.9,1.2-4.2,3-4.1c0.8,0,1.4,0.4,1.9,1v-5.1c0-0.4,0.1-0.5,0.5-0.5h0.7c0.4,0,0.5,0.1,0.5,0.5V65.2z
			 M60.2,57.6c0-1.5-0.7-2.2-1.6-2.2c-0.9,0-1.6,0.7-1.6,2.2v4.5c0,1.5,0.7,2.2,1.6,2.2c0.9,0,1.6-0.7,1.6-2.2V57.6z"/>
		<path class="st0" d="M65.7,62.1c0,1.5,0.6,2.2,1.5,2.2c0.8,0,1.4-0.6,1.5-1.8c0-0.4,0.1-0.5,0.4-0.5h0.6c0.4,0,0.5,0.2,0.5,0.7
			c-0.2,1.8-1.2,3-3,3c-1.8,0-3.1-1.2-3.1-4.1V58c0-2.9,1.3-4.1,3.1-4.1c1.8,0,3.1,1.2,3.1,4.1v1.4c0,0.4-0.1,0.5-0.5,0.5h-3.7
			c-0.5,0-0.5,0-0.5,0.4V62.1z M65.7,57.9c0,0.5,0,0.5,0.5,0.5h2.1c0.5,0,0.5,0,0.5-0.5v-0.4c0-1.5-0.6-2.2-1.5-2.2
			s-1.5,0.7-1.5,2.2V57.9z"/>
		<path class="st0" d="M77.6,58c0-2.9,1.3-4.1,3.1-4.1s3.1,1.2,3.1,4.1v3.6c0,2.9-1.3,4.1-3.1,4.1s-3.1-1.2-3.1-4.1V58z M82.3,57.5
			c0-1.5-0.6-2.2-1.5-2.2s-1.5,0.7-1.5,2.2v4.5c0,1.5,0.6,2.2,1.5,2.2s1.5-0.7,1.5-2.2V57.5z"/>
		<path class="st0" d="M86,58c0-2.9,1.3-4.1,3.1-4.1c1.9,0,2.9,1.3,3,3c0,0.5-0.1,0.7-0.5,0.7h-0.6c-0.3,0-0.4-0.1-0.4-0.5
			c-0.1-1.1-0.7-1.8-1.5-1.8c-0.9,0-1.5,0.7-1.5,2.2v4.5c0,1.5,0.6,2.2,1.5,2.2c0.8,0,1.4-0.6,1.5-1.8c0-0.4,0.1-0.5,0.4-0.5h0.6
			c0.4,0,0.5,0.2,0.5,0.7c-0.2,1.8-1.2,3-3,3c-1.8,0-3.1-1.2-3.1-4.1V58z"/>
		<path class="st0" d="M95.3,51.1c0.5,0,0.9,0.4,0.9,0.9c0,0.5-0.4,0.9-0.9,0.9C94.1,53,94.1,51,95.3,51.1z M96.1,65.2
			c0,0.4-0.1,0.5-0.5,0.5H95c-0.4,0-0.5-0.1-0.5-0.5V54.4c0-0.4,0.1-0.5,0.5-0.5h0.7c0.4,0,0.5,0.1,0.5,0.5V65.2z"/>
		<path class="st0" d="M98.4,58c0-2.9,1.3-4.1,3.1-4.1s3.1,1.2,3.1,4.1v3.6c0,2.9-1.3,4.1-3.1,4.1s-3.1-1.2-3.1-4.1V58z M103.1,57.5
			c0-1.5-0.6-2.2-1.5-2.2s-1.5,0.7-1.5,2.2v4.5c0,1.5,0.6,2.2,1.5,2.2s1.5-0.7,1.5-2.2V57.5z"/>
	</g>
	<g>
		<path class="st0" d="M119.7,58c0-2.9,1.3-4.1,3.1-4.1c1.9,0,2.9,1.3,3,3c0,0.5-0.1,0.7-0.5,0.7h-0.6c-0.3,0-0.4-0.1-0.4-0.5
			c-0.1-1.1-0.7-1.8-1.5-1.8c-0.9,0-1.5,0.7-1.5,2.2v4.5c0,1.5,0.6,2.2,1.5,2.2c0.8,0,1.4-0.6,1.5-1.8c0-0.4,0.1-0.5,0.4-0.5h0.6
			c0.4,0,0.5,0.2,0.5,0.7c-0.2,1.8-1.2,3-3,3c-1.8,0-3.1-1.2-3.1-4.1V58z"/>
		<path class="st0" d="M128.1,61.6v-7.2c0-0.4,0.1-0.5,0.5-0.5h0.7c0.4,0,0.5,0.1,0.5,0.5v7.6c0,1.5,0.7,2.2,1.6,2.2
			c0.9,0,1.6-0.7,1.6-2.2v-7.6c0-0.4,0.1-0.5,0.5-0.5h0.7c0.4,0,0.5,0.1,0.5,0.5v10.7c0,0.4-0.1,0.5-0.5,0.5h-0.7
			c-0.4,0-0.5-0.1-0.5-0.5v-0.4c-0.4,0.6-1.1,1-1.9,1C129.3,65.8,128.1,64.5,128.1,61.6z"/>
		<path class="st0" d="M139.9,64.6v0.6c0,0.4-0.1,0.5-0.5,0.5c-1,0-1.7-0.4-2-1.1c-0.2-0.5-0.3-0.8-0.4-1.6c0-0.8,0-1.1,0-2V49.8
			c0-0.4,0.1-0.5,0.5-0.5h0.7c0.4,0,0.5,0.1,0.5,0.5v12c0,0.9,0,1.2,0.1,1.7c0.1,0.5,0.4,0.7,0.7,0.7
			C139.8,64.2,139.9,64.3,139.9,64.6z"/>
		<path class="st0" d="M144.7,64.6v0.6c0,0.4-0.1,0.5-0.5,0.5c-1,0-1.7-0.4-2-1.1c-0.2-0.5-0.3-0.8-0.4-1.6c0-0.8,0-1.1,0-2v-5
			c0-0.2-0.1-0.2-0.2-0.2c-0.4,0-0.5-0.1-0.5-0.5v-0.5c0-0.4,0.1-0.5,0.5-0.5c0.2,0,0.2-0.1,0.2-0.2v-2.2c0-0.4,0.1-0.5,0.5-0.5h0.7
			c0.4,0,0.5,0.1,0.5,0.5v2.2c0,0.2,0.1,0.2,0.2,0.2h0.4c0.4,0,0.5,0.1,0.5,0.5v0.5c0,0.4-0.1,0.5-0.5,0.5h-0.4
			c-0.2,0-0.2,0.1-0.2,0.2v5.7c0,0.9,0,1.2,0.1,1.7c0.1,0.5,0.4,0.7,0.7,0.7C144.6,64.2,144.7,64.3,144.7,64.6z"/>
		<path class="st0" d="M146.5,61.6v-7.2c0-0.4,0.1-0.5,0.5-0.5h0.7c0.4,0,0.5,0.1,0.5,0.5v7.6c0,1.5,0.7,2.2,1.6,2.2
			c0.9,0,1.6-0.7,1.6-2.2v-7.6c0-0.4,0.1-0.5,0.5-0.5h0.7c0.4,0,0.5,0.1,0.5,0.5v10.7c0,0.4-0.1,0.5-0.5,0.5h-0.7
			c-0.4,0-0.5-0.1-0.5-0.5v-0.4c-0.4,0.6-1.1,1-1.9,1C147.6,65.8,146.5,64.5,146.5,61.6z"/>
		<path class="st0" d="M158.2,55.5c-0.5,0-0.9,0.2-1,0.8c-0.1,0.5-0.1,0.9-0.1,1.6v7.3c0,0.4-0.1,0.5-0.5,0.5h-0.7
			c-0.4,0-0.5-0.1-0.5-0.5V54.4c0-0.4,0.1-0.5,0.5-0.5h0.7c0.4,0,0.5,0.1,0.5,0.5v0.3c0.5-0.5,1-0.7,1.7-0.7h0
			c0.4,0,0.5,0.1,0.5,0.5v0.7c0,0.4-0.1,0.6-0.5,0.5C158.5,55.6,158.3,55.5,158.2,55.5z"/>
		<path class="st0" d="M163.3,65.7c-1.8,0-2.9-1.1-2.9-3.1v-0.7c0-3.5,4.2-2.6,4.6-4.5c0.3-1.1-0.4-2-1.4-2c-0.8,0-1.5,0.6-1.5,1.8
			c0,0.4-0.1,0.5-0.4,0.5H161c-0.4,0-0.4-0.1-0.5-0.5c-0.1-0.9,0.2-1.6,0.8-2.3c0.6-0.7,1.3-1,2.2-1c0.8,0,1.4,0.3,2.1,0.8
			c0.6,0.5,1,1.4,1,2.4v6.7c0,0.4,0.1,0.8,0.2,1.4c0.1,0.3-0.1,0.5-0.5,0.5h-0.5c-0.4,0-0.4-0.1-0.5-0.7
			C164.7,65.4,164.1,65.7,163.3,65.7z M165,62.4v-3c-0.2,0.1-0.5,0.2-0.9,0.4c-0.4,0.2-0.7,0.3-0.9,0.4c-0.6,0.3-1.4,0.9-1.3,2v0.3
			c0,1.2,0.6,1.9,1.7,1.8C164.5,64.2,165,63.7,165,62.4z"/>
		<path class="st0" d="M171.8,64.6v0.6c0,0.4-0.1,0.5-0.5,0.5c-1,0-1.7-0.4-2-1.1c-0.2-0.5-0.3-0.8-0.4-1.6c0-0.8,0-1.1,0-2V49.8
			c0-0.4,0.1-0.5,0.5-0.5h0.7c0.4,0,0.5,0.1,0.5,0.5v12c0,0.9,0,1.2,0.1,1.7c0.1,0.5,0.4,0.7,0.7,0.7
			C171.7,64.2,171.8,64.3,171.8,64.6z"/>
	</g>
</g>
</svg>
