<?xml version="1.0" encoding="utf-8"?>
<!-- Generator: Adobe Illustrator 21.0.0, SVG Export Plug-In . SVG Version: 6.00 Build 0)  -->
<svg version="1.1" id="Capa_1" xmlns="http://www.w3.org/2000/svg" xmlns:xlink="http://www.w3.org/1999/xlink" x="0px" y="0px"
	 viewBox="0 0 21.7 18.2" style="enable-background:new 0 0 21.7 18.2;" xml:space="preserve">
<style type="text/css">
	.st0{clip-path:url(#SVGID_2_);}
	.st1{clip-path:url(#SVGID_4_);}
	.st2{clip-path:url(#SVGID_6_);}
	.st3{clip-path:url(#SVGID_8_);}
	.st4{clip-path:url(#SVGID_10_);}
	.st5{clip-path:url(#SVGID_12_);}
</style>
<g>
	<defs>
		<path id="SVGID_1_" d="M0,0.8C0,0.4,0.4,0,0.8,0h20.1c0.4,0,0.8,0.4,0.8,0.8v1.8c0,0.4-0.4,0.8-0.8,0.8H0.8C0.4,3.4,0,3,0,2.6V0.8
			z"/>
	</defs>
	<clipPath id="SVGID_2_">
		<use xlink:href="#SVGID_1_"  style="overflow:visible;"/>
	</clipPath>
	<g class="st0">
		<defs>
			<rect id="SVGID_3_" x="-21.3" y="-36.3" width="375" height="3632"/>
		</defs>
		<clipPath id="SVGID_4_">
			<use xlink:href="#SVGID_3_"  style="overflow:visible;"/>
		</clipPath>
		<rect x="-5" y="-5" class="st1" width="31.7" height="13.4"/>
	</g>
</g>
<g>
	<defs>
		<path id="SVGID_5_" d="M0,8.2c0-0.4,0.4-0.8,0.8-0.8h20.1c0.4,0,0.8,0.4,0.8,0.8V10c0,0.4-0.4,0.8-0.8,0.8H0.8
			C0.4,10.8,0,10.4,0,10V8.2z"/>
	</defs>
	<clipPath id="SVGID_6_">
		<use xlink:href="#SVGID_5_"  style="overflow:visible;"/>
	</clipPath>
	<g class="st2">
		<defs>
			<rect id="SVGID_7_" x="-21.3" y="-36.3" width="375" height="3632"/>
		</defs>
		<clipPath id="SVGID_8_">
			<use xlink:href="#SVGID_7_"  style="overflow:visible;"/>
		</clipPath>
		<rect x="-5" y="2.4" class="st3" width="31.7" height="13.4"/>
	</g>
</g>
<g>
	<defs>
		<path id="SVGID_9_" d="M0,15.6c0-0.4,0.4-0.8,0.8-0.8h20.1c0.4,0,0.8,0.4,0.8,0.8v1.8c0,0.4-0.4,0.8-0.8,0.8H0.8
			c-0.4,0-0.8-0.4-0.8-0.8V15.6z"/>
	</defs>
	<clipPath id="SVGID_10_">
		<use xlink:href="#SVGID_9_"  style="overflow:visible;"/>
	</clipPath>
	<g class="st4">
		<defs>
			<rect id="SVGID_11_" x="-21.3" y="-36.3" width="375" height="3632"/>
		</defs>
		<clipPath id="SVGID_12_">
			<use xlink:href="#SVGID_11_"  style="overflow:visible;"/>
		</clipPath>
		<rect x="-5" y="9.8" class="st5" width="31.7" height="13.4"/>
	</g>
</g>
</svg>
