<?xml version="1.0" encoding="utf-8"?>
<!-- Generator: Adobe Illustrator 21.0.0, SVG Export Plug-In . SVG Version: 6.00 Build 0)  -->
<svg version="1.1" id="Capa_1" xmlns="http://www.w3.org/2000/svg" xmlns:xlink="http://www.w3.org/1999/xlink" x="0px" y="0px"
	 viewBox="0 0 28 30" style="enable-background:new 0 0 28 30;" xml:space="preserve">
<style type="text/css">
	.st0{clip-path:url(#SVGID_2_);}
	.st1{clip-path:url(#SVGID_4_);}
	.st2{clip-path:url(#SVGID_6_);}
	.st3{clip-path:url(#SVGID_8_);}
	.st4{clip-path:url(#SVGID_10_);}
	.st5{clip-path:url(#SVGID_12_);}
</style>
<g>
	<g>
		<defs>
			<path id="SVGID_1_" d="M3.3,6.1c0-0.4,0.4-0.8,0.8-0.8h20.1c0.4,0,0.8,0.4,0.8,0.8v1.8c0,0.4-0.4,0.8-0.8,0.8H4.1
				c-0.4,0-0.8-0.4-0.8-0.8V6.1z"/>
		</defs>
		<use xlink:href="#SVGID_1_"  style="overflow:visible;fill-rule:evenodd;clip-rule:evenodd;"/>
		<clipPath id="SVGID_2_">
			<use xlink:href="#SVGID_1_"  style="overflow:visible;"/>
		</clipPath>
		<g class="st0">
			<defs>
				<rect id="SVGID_3_" x="-18" y="-31" width="375" height="4190"/>
			</defs>
			<use xlink:href="#SVGID_3_"  style="overflow:visible;"/>
			<clipPath id="SVGID_4_">
				<use xlink:href="#SVGID_3_"  style="overflow:visible;"/>
			</clipPath>
			<rect x="-1.7" y="0.3" class="st1" width="31.7" height="13.4"/>
		</g>
	</g>
	<g>
		<defs>
			<path id="SVGID_5_" d="M3.3,13.5c0-0.4,0.4-0.8,0.8-0.8h20.1c0.4,0,0.8,0.4,0.8,0.8v1.8c0,0.4-0.4,0.8-0.8,0.8H4.1
				c-0.4,0-0.8-0.4-0.8-0.8V13.5z"/>
		</defs>
		<use xlink:href="#SVGID_5_"  style="overflow:visible;fill-rule:evenodd;clip-rule:evenodd;"/>
		<clipPath id="SVGID_6_">
			<use xlink:href="#SVGID_5_"  style="overflow:visible;"/>
		</clipPath>
		<g class="st2">
			<defs>
				<rect id="SVGID_7_" x="-18" y="-31" width="375" height="4190"/>
			</defs>
			<use xlink:href="#SVGID_7_"  style="overflow:visible;"/>
			<clipPath id="SVGID_8_">
				<use xlink:href="#SVGID_7_"  style="overflow:visible;"/>
			</clipPath>
			<rect x="-1.7" y="7.7" class="st3" width="31.7" height="13.4"/>
		</g>
	</g>
	<g>
		<defs>
			<path id="SVGID_9_" d="M3.3,20.9c0-0.4,0.4-0.8,0.8-0.8h20.1c0.4,0,0.8,0.4,0.8,0.8v1.8c0,0.4-0.4,0.8-0.8,0.8H4.1
				c-0.4,0-0.8-0.4-0.8-0.8V20.9z"/>
		</defs>
		<use xlink:href="#SVGID_9_"  style="overflow:visible;fill-rule:evenodd;clip-rule:evenodd;"/>
		<clipPath id="SVGID_10_">
			<use xlink:href="#SVGID_9_"  style="overflow:visible;"/>
		</clipPath>
		<g class="st4">
			<defs>
				<rect id="SVGID_11_" x="-18" y="-31" width="375" height="4190"/>
			</defs>
			<use xlink:href="#SVGID_11_"  style="overflow:visible;"/>
			<clipPath id="SVGID_12_">
				<use xlink:href="#SVGID_11_"  style="overflow:visible;"/>
			</clipPath>
			<rect x="-1.7" y="15.1" class="st5" width="31.7" height="13.4"/>
		</g>
	</g>
</g>
</svg>
