<?xml version="1.0" encoding="utf-8"?>
<!-- Generator: Adobe Illustrator 21.0.0, SVG Export Plug-In . SVG Version: 6.00 Build 0)  -->
<svg version="1.1" id="Capa_1" xmlns="http://www.w3.org/2000/svg" xmlns:xlink="http://www.w3.org/1999/xlink" x="0px" y="0px"
	 viewBox="0 0 48 48" style="enable-background:new 0 0 48 48;" xml:space="preserve">
<style type="text/css">
	.st0{clip-path:url(#SVGID_2_);fill:#FFFFFF;}
</style>
<g>
	<g>
		<defs>
			<path id="SVGID_1_" d="M26.8,31.9c-2.2,0-4.3-1.2-5-2.6c0,0-1.2,4.7-1.4,5.7c-0.9,3.2-3.5,6.5-3.7,6.7c-0.1,0.2-0.5,0.1-0.5-0.1
				c-0.1-0.4-0.7-4.5,0.1-7.8c0.4-1.7,2.6-11.2,2.6-11.2s-0.7-1.3-0.7-3.3c0-3,1.8-5.3,4-5.3c1.9,0,2.8,1.4,2.8,3.1
				c0,1.9-1.2,4.7-1.8,7.3c-0.5,2.2,1.1,4,3.2,4c3.9,0,6.5-5,6.5-10.9c0-4.5-3-7.9-8.6-7.9c-6.2,0-10.1,4.7-10.1,9.8
				c0,1.8,0.5,3.1,1.4,4c0.4,0.4,0.4,0.6,0.3,1.1c-0.1,0.4-0.3,1.3-0.4,1.6c-0.1,0.5-0.6,0.7-1,0.5c-2.9-1.2-4.2-4.3-4.2-7.9
				C10.2,13,15.1,6,24.9,6c7.8,0,13,5.7,13,11.8C37.9,25.9,33.4,31.9,26.8,31.9z M24-0.1c-13.3,0-24,10.7-24,24s10.7,24,24,24
				s24-10.7,24-24S37.3-0.1,24-0.1z"/>
		</defs>
		<clipPath id="SVGID_2_">
			<use xlink:href="#SVGID_1_"  style="overflow:visible;"/>
		</clipPath>
		<rect x="-5" y="-5.1" class="st0" width="58" height="58"/>
	</g>
</g>
</svg>
