<?xml version="1.0" encoding="utf-8"?>
<!-- Generator: Adobe Illustrator 21.0.0, SVG Export Plug-In . SVG Version: 6.00 Build 0)  -->
<svg version="1.1" id="Capa_1" xmlns="http://www.w3.org/2000/svg" xmlns:xlink="http://www.w3.org/1999/xlink" x="0px" y="0px"
	 viewBox="0 0 26 30" style="enable-background:new 0 0 26 30;" xml:space="preserve">
<style type="text/css">
	.st0{clip-path:url(#SVGID_2_);}
	.st1{clip-path:url(#SVGID_4_);}
</style>
<g>
	<defs>
		<path id="SVGID_1_" d="M15,20.8c-1.6,0-3.1-0.9-3.6-1.9c0,0-0.9,3.4-1,4.1c-0.6,2.3-2.5,4.7-2.7,4.9c-0.1,0.1-0.3,0.1-0.4-0.1
			c0-0.3-0.5-3.3,0-5.7C7.6,20.9,9.2,14,9.2,14s-0.5-1-0.5-2.4c0-2.2,1.3-3.9,2.9-3.9c1.3,0,2,1,2,2.2c0,1.4-0.9,3.4-1.3,5.3
			c-0.4,1.6,0.8,2.9,2.3,2.9c2.8,0,4.7-3.6,4.7-7.9c0-3.3-2.2-5.7-6.2-5.7c-4.5,0-7.3,3.4-7.3,7.2c0,1.3,0.4,2.2,1,2.9
			c0.3,0.3,0.3,0.5,0.2,0.8c-0.1,0.3-0.2,0.9-0.3,1.2C6.7,17,6.4,17.2,6,17c-2.1-0.9-3-3.1-3-5.7C3,7.1,6.6,2,13.6,2
			c5.7,0,9.4,4.1,9.4,8.6C23,16.4,19.8,20.8,15,20.8z"/>
	</defs>
	<clipPath id="SVGID_2_">
		<use xlink:href="#SVGID_1_"  style="overflow:visible;"/>
	</clipPath>
	<g class="st0">
		<defs>
			<rect id="SVGID_3_" x="-225" y="-1091" width="375" height="4190"/>
		</defs>
		<clipPath id="SVGID_4_">
			<use xlink:href="#SVGID_3_"  style="overflow:visible;"/>
		</clipPath>
		<rect x="-2" y="-3" class="st1" width="30" height="36"/>
	</g>
</g>
</svg>
