<?xml version="1.0" encoding="utf-8"?>
<!-- Generator: Adobe Illustrator 21.0.0, SVG Export Plug-In . SVG Version: 6.00 Build 0)  -->
<svg version="1.1" id="Capa_1" xmlns="http://www.w3.org/2000/svg" xmlns:xlink="http://www.w3.org/1999/xlink" x="0px" y="0px"
	 viewBox="0 0 28 30" style="enable-background:new 0 0 28 30;" xml:space="preserve">
<style type="text/css">
	.st0{fill:#FFFFFF;}
	.st1{clip-path:url(#SVGID_4_);}
	.st2{clip-path:url(#SVGID_6_);fill:#FFFFFF;}
</style>
<g>
	<g>
		<path id="SVGID_1_" class="st0" d="M11.9,19.3c-3.6,0-6.4-2.9-6.4-6.4c0-3.6,2.9-6.4,6.4-6.4c3.6,0,6.4,2.9,6.4,6.4
			S15.4,19.3,11.9,19.3z M25.4,23.6l-5.2-5.2c0,0-0.1,0-0.1-0.1c1-1.6,1.6-3.4,1.6-5.4c0-5.4-4.4-9.9-9.9-9.9S2,7.4,2,12.9
			c0,5.4,4.4,9.9,9.9,9.9c2,0,3.9-0.6,5.4-1.6c0,0,0,0.1,0.1,0.1l5.2,5.2c0.8,0.8,2.1,0.8,2.8,0C26.2,25.6,26.2,24.4,25.4,23.6z"/>
	</g>
	<g>
		<defs>
			<path id="SVGID_2_" d="M11.9,19.3c-3.6,0-6.4-2.9-6.4-6.4c0-3.6,2.9-6.4,6.4-6.4c3.6,0,6.4,2.9,6.4,6.4S15.4,19.3,11.9,19.3z
				 M25.4,23.6l-5.2-5.2c0,0-0.1,0-0.1-0.1c1-1.6,1.6-3.4,1.6-5.4c0-5.4-4.4-9.9-9.9-9.9S2,7.4,2,12.9c0,5.4,4.4,9.9,9.9,9.9
				c2,0,3.9-0.6,5.4-1.6c0,0,0,0.1,0.1,0.1l5.2,5.2c0.8,0.8,2.1,0.8,2.8,0C26.2,25.6,26.2,24.4,25.4,23.6z"/>
		</defs>
		<use xlink:href="#SVGID_2_"  style="overflow:visible;fill:#FFFFFF;"/>
		<clipPath id="SVGID_4_">
			<use xlink:href="#SVGID_2_"  style="overflow:visible;"/>
		</clipPath>
		<g class="st1">
			<g>
				<rect id="SVGID_3_" x="-378.6" y="-37" class="st0" width="428.6" height="4788.6"/>
			</g>
			<g>
				<defs>
					<rect id="SVGID_5_" x="-378.6" y="-37" width="428.6" height="4788.6"/>
				</defs>
				<use xlink:href="#SVGID_5_"  style="overflow:visible;fill:#FFFFFF;"/>
				<clipPath id="SVGID_6_">
					<use xlink:href="#SVGID_5_"  style="overflow:visible;"/>
				</clipPath>
				<rect x="-3.7" y="-2.7" class="st2" width="35.4" height="35.4"/>
			</g>
		</g>
	</g>
</g>
</svg>
