<?xml version="1.0" encoding="utf-8"?>
<!-- Generator: Adobe Illustrator 21.0.0, SVG Export Plug-In . SVG Version: 6.00 Build 0)  -->
<svg version="1.1" id="Capa_1" xmlns="http://www.w3.org/2000/svg" xmlns:xlink="http://www.w3.org/1999/xlink" x="0px" y="0px"
	 viewBox="0 0 17 18" style="enable-background:new 0 0 17 18;" xml:space="preserve">
<style type="text/css">
	.st0{clip-path:url(#SVGID_2_);}
	.st1{clip-path:url(#SVGID_4_);fill:#FFFFFF;}
	.st2{clip-path:url(#SVGID_6_);}
	.st3{clip-path:url(#SVGID_8_);fill:#FFFFFF;}
	.st4{clip-path:url(#SVGID_10_);}
	.st5{clip-path:url(#SVGID_12_);fill:#FFFFFF;}
	.st6{clip-path:url(#SVGID_14_);}
	.st7{clip-path:url(#SVGID_16_);fill:#FFFFFF;}
	.st8{clip-path:url(#SVGID_18_);}
	.st9{clip-path:url(#SVGID_20_);fill:#FFFFFF;}
	.st10{clip-path:url(#SVGID_22_);}
	.st11{clip-path:url(#SVGID_24_);fill:#FFFFFF;}
	.st12{clip-path:url(#SVGID_26_);}
	.st13{clip-path:url(#SVGID_28_);fill:#FFFFFF;}
	.st14{clip-path:url(#SVGID_30_);}
	.st15{clip-path:url(#SVGID_32_);fill:#FFFFFF;}
	.st16{clip-path:url(#SVGID_34_);}
	.st17{clip-path:url(#SVGID_36_);fill:#FFFFFF;}
</style>
<g>
	<g>
		<defs>
			<circle id="SVGID_1_" cx="8.3" cy="8.8" r="4.1"/>
		</defs>
		<use xlink:href="#SVGID_1_"  style="overflow:visible;fill:#FFFFFF;"/>
		<clipPath id="SVGID_2_">
			<use xlink:href="#SVGID_1_"  style="overflow:visible;"/>
		</clipPath>
		<g class="st0">
			<defs>
				<rect id="SVGID_3_" x="-197" y="-4.9" width="289.8" height="515.4"/>
			</defs>
			<use xlink:href="#SVGID_3_"  style="overflow:visible;fill:#FFFFFF;"/>
			<clipPath id="SVGID_4_">
				<use xlink:href="#SVGID_3_"  style="overflow:visible;"/>
			</clipPath>
			<rect x="0.4" y="0.9" class="st1" width="15.9" height="15.9"/>
		</g>
	</g>
	<g>
		<defs>
			<path id="SVGID_5_" d="M8.5,3.8c0.4,0,0.7-0.3,0.7-0.7V1.2c0-0.4-0.3-0.7-0.7-0.7S7.8,0.8,7.8,1.2v1.9C7.8,3.5,8.1,3.8,8.5,3.8z"
				/>
		</defs>
		<use xlink:href="#SVGID_5_"  style="overflow:visible;fill:#FFFFFF;"/>
		<clipPath id="SVGID_6_">
			<use xlink:href="#SVGID_5_"  style="overflow:visible;"/>
		</clipPath>
		<g class="st2">
			<defs>
				<rect id="SVGID_7_" x="-197" y="-4.9" width="289.8" height="515.4"/>
			</defs>
			<use xlink:href="#SVGID_7_"  style="overflow:visible;fill:#FFFFFF;"/>
			<clipPath id="SVGID_8_">
				<use xlink:href="#SVGID_7_"  style="overflow:visible;"/>
			</clipPath>
			<rect x="4" y="-3.4" class="st3" width="9" height="11"/>
		</g>
	</g>
	<g>
		<defs>
			<path id="SVGID_9_" d="M12.7,5.4c0.2,0,0.3-0.1,0.5-0.2l1.3-1.3c0.3-0.3,0.3-0.7,0-0.9c-0.3-0.3-0.7-0.3-0.9,0l-1.3,1.3
				C12,4.6,12,5,12.3,5.2C12.4,5.3,12.6,5.4,12.7,5.4z"/>
		</defs>
		<use xlink:href="#SVGID_9_"  style="overflow:visible;fill:#FFFFFF;"/>
		<clipPath id="SVGID_10_">
			<use xlink:href="#SVGID_9_"  style="overflow:visible;"/>
		</clipPath>
		<g class="st4">
			<defs>
				<rect id="SVGID_11_" x="-197" y="-4.9" width="289.8" height="515.4"/>
			</defs>
			<use xlink:href="#SVGID_11_"  style="overflow:visible;fill:#FFFFFF;"/>
			<clipPath id="SVGID_12_">
				<use xlink:href="#SVGID_11_"  style="overflow:visible;"/>
			</clipPath>
			<rect x="8.2" y="-1.1" class="st5" width="10.3" height="10.3"/>
		</g>
	</g>
	<g>
		<defs>
			<path id="SVGID_13_" d="M16.3,8.3h-1.9c-0.4,0-0.7,0.3-0.7,0.7s0.3,0.7,0.7,0.7h1.9C16.7,9.7,17,9.4,17,9S16.7,8.3,16.3,8.3z"/>
		</defs>
		<use xlink:href="#SVGID_13_"  style="overflow:visible;fill:#FFFFFF;"/>
		<clipPath id="SVGID_14_">
			<use xlink:href="#SVGID_13_"  style="overflow:visible;"/>
		</clipPath>
		<g class="st6">
			<defs>
				<rect id="SVGID_15_" x="-197" y="-4.9" width="289.8" height="515.4"/>
			</defs>
			<use xlink:href="#SVGID_15_"  style="overflow:visible;fill:#FFFFFF;"/>
			<clipPath id="SVGID_16_">
				<use xlink:href="#SVGID_15_"  style="overflow:visible;"/>
			</clipPath>
			<rect x="9.9" y="4.5" class="st7" width="11" height="9"/>
		</g>
	</g>
	<g>
		<defs>
			<path id="SVGID_17_" d="M13.2,12.8c-0.3-0.3-0.7-0.3-0.9,0c-0.3,0.3-0.3,0.7,0,0.9l1.3,1.3c0.1,0.1,0.3,0.2,0.5,0.2
				s0.3-0.1,0.5-0.2c0.3-0.3,0.3-0.7,0-0.9L13.2,12.8z"/>
		</defs>
		<use xlink:href="#SVGID_17_"  style="overflow:visible;fill:#FFFFFF;"/>
		<clipPath id="SVGID_18_">
			<use xlink:href="#SVGID_17_"  style="overflow:visible;"/>
		</clipPath>
		<g class="st8">
			<defs>
				<rect id="SVGID_19_" x="-197" y="-4.9" width="289.8" height="515.4"/>
			</defs>
			<use xlink:href="#SVGID_19_"  style="overflow:visible;fill:#FFFFFF;"/>
			<clipPath id="SVGID_20_">
				<use xlink:href="#SVGID_19_"  style="overflow:visible;"/>
			</clipPath>
			<rect x="8.2" y="8.7" class="st9" width="10.3" height="10.3"/>
		</g>
	</g>
	<g>
		<defs>
			<path id="SVGID_21_" d="M8.5,14.2c-0.4,0-0.7,0.3-0.7,0.7v1.9c0,0.4,0.3,0.7,0.7,0.7s0.7-0.3,0.7-0.7v-1.9
				C9.2,14.5,8.9,14.2,8.5,14.2z"/>
		</defs>
		<use xlink:href="#SVGID_21_"  style="overflow:visible;fill:#FFFFFF;"/>
		<clipPath id="SVGID_22_">
			<use xlink:href="#SVGID_21_"  style="overflow:visible;"/>
		</clipPath>
		<g class="st10">
			<defs>
				<rect id="SVGID_23_" x="-197" y="-4.9" width="289.8" height="515.4"/>
			</defs>
			<use xlink:href="#SVGID_23_"  style="overflow:visible;fill:#FFFFFF;"/>
			<clipPath id="SVGID_24_">
				<use xlink:href="#SVGID_23_"  style="overflow:visible;"/>
			</clipPath>
			<rect x="4" y="10.4" class="st11" width="9" height="11"/>
		</g>
	</g>
	<g>
		<defs>
			<path id="SVGID_25_" d="M3.8,12.8l-1.3,1.3c-0.3,0.3-0.3,0.7,0,0.9c0.1,0.1,0.3,0.2,0.5,0.2c0.2,0,0.3-0.1,0.5-0.2l1.3-1.3
				C5,13.4,5,13,4.7,12.8C4.5,12.5,4.1,12.5,3.8,12.8z"/>
		</defs>
		<use xlink:href="#SVGID_25_"  style="overflow:visible;fill:#FFFFFF;"/>
		<clipPath id="SVGID_26_">
			<use xlink:href="#SVGID_25_"  style="overflow:visible;"/>
		</clipPath>
		<g class="st12">
			<defs>
				<rect id="SVGID_27_" x="-197" y="-4.9" width="289.8" height="515.4"/>
			</defs>
			<use xlink:href="#SVGID_27_"  style="overflow:visible;fill:#FFFFFF;"/>
			<clipPath id="SVGID_28_">
				<use xlink:href="#SVGID_27_"  style="overflow:visible;"/>
			</clipPath>
			<rect x="-1.6" y="8.7" class="st13" width="10.3" height="10.3"/>
		</g>
	</g>
	<g>
		<defs>
			<path id="SVGID_29_" d="M3.3,9c0-0.4-0.3-0.7-0.7-0.7H0.7C0.3,8.3,0,8.6,0,9s0.3,0.7,0.7,0.7h1.9C3,9.7,3.3,9.4,3.3,9z"/>
		</defs>
		<use xlink:href="#SVGID_29_"  style="overflow:visible;fill:#FFFFFF;"/>
		<clipPath id="SVGID_30_">
			<use xlink:href="#SVGID_29_"  style="overflow:visible;"/>
		</clipPath>
		<g class="st14">
			<defs>
				<rect id="SVGID_31_" x="-197" y="-4.9" width="289.8" height="515.4"/>
			</defs>
			<use xlink:href="#SVGID_31_"  style="overflow:visible;fill:#FFFFFF;"/>
			<clipPath id="SVGID_32_">
				<use xlink:href="#SVGID_31_"  style="overflow:visible;"/>
			</clipPath>
			<rect x="-3.9" y="4.5" class="st15" width="11" height="9"/>
		</g>
	</g>
	<g>
		<defs>
			<path id="SVGID_33_" d="M3.8,5.2c0.1,0.1,0.3,0.2,0.5,0.2c0.2,0,0.3-0.1,0.5-0.2C5,5,5,4.6,4.7,4.3L3.4,3C3.1,2.7,2.7,2.7,2.5,3
				c-0.3,0.3-0.3,0.7,0,0.9L3.8,5.2z"/>
		</defs>
		<use xlink:href="#SVGID_33_"  style="overflow:visible;fill:#FFFFFF;"/>
		<clipPath id="SVGID_34_">
			<use xlink:href="#SVGID_33_"  style="overflow:visible;"/>
		</clipPath>
		<g class="st16">
			<defs>
				<rect id="SVGID_35_" x="-197" y="-4.9" width="289.8" height="515.4"/>
			</defs>
			<use xlink:href="#SVGID_35_"  style="overflow:visible;fill:#FFFFFF;"/>
			<clipPath id="SVGID_36_">
				<use xlink:href="#SVGID_35_"  style="overflow:visible;"/>
			</clipPath>
			<rect x="-1.6" y="-1.1" class="st17" width="10.3" height="10.3"/>
		</g>
	</g>
</g>
</svg>
