<?xml version="1.0" encoding="utf-8"?>
<!-- Generator: Adobe Illustrator 21.0.0, SVG Export Plug-In . SVG Version: 6.00 Build 0)  -->
<svg version="1.1" id="Capa_1" xmlns="http://www.w3.org/2000/svg" xmlns:xlink="http://www.w3.org/1999/xlink" x="0px" y="0px"
	 viewBox="0 0 30 30" style="enable-background:new 0 0 30 30;" xml:space="preserve">
<style type="text/css">
	.st0{clip-path:url(#SVGID_2_);}
	.st1{clip-path:url(#SVGID_4_);}
	.st2{clip-path:url(#SVGID_6_);}
	.st3{clip-path:url(#SVGID_8_);}
</style>
<g>
	<g>
		<defs>
			<path id="SVGID_1_" d="M6.2,19.5H2.8c-0.5,0-0.8-0.4-0.8-0.8V3.4c0-0.5,0.4-0.8,0.8-0.8h3.4c0.5,0,0.8,0.4,0.8,0.8v15.3
				C7.1,19.1,6.7,19.5,6.2,19.5z"/>
		</defs>
		<clipPath id="SVGID_2_">
			<use xlink:href="#SVGID_1_"  style="overflow:visible;"/>
		</clipPath>
		<g class="st0">
			<defs>
				<rect id="SVGID_3_" x="-898" y="-1586.5" width="1440" height="1928"/>
			</defs>
			<clipPath id="SVGID_4_">
				<use xlink:href="#SVGID_3_"  style="overflow:visible;"/>
			</clipPath>
			<rect x="-3" y="-2.5" class="st1" width="15.1" height="27"/>
		</g>
	</g>
	<g>
		<defs>
			<path id="SVGID_5_" d="M25.9,19.5c-0.1,0-6.5,0-6.5,0l0.9,2.4c0.6,1.7,0.2,4.3-1.5,5.2c-0.6,0.3-1.3,0.4-2,0.3
				c-0.4-0.1-0.7-0.3-0.9-0.6c-0.2-0.4-0.2-0.8-0.3-1.2c-0.2-1-0.7-2-1.4-2.8c-1.3-1.3-5.4-5-5.4-5V4.2h14.1c1.9,0,3.2,2.1,2.2,3.8
				c1.1,0.7,1.5,2.2,0.8,3.4c1.1,0.7,1.5,2.2,0.8,3.4C28.8,16.1,28.1,19.1,25.9,19.5z"/>
		</defs>
		<clipPath id="SVGID_6_">
			<use xlink:href="#SVGID_5_"  style="overflow:visible;"/>
		</clipPath>
		<g class="st2">
			<defs>
				<rect id="SVGID_7_" x="-898" y="-1586.5" width="1440" height="1928"/>
			</defs>
			<clipPath id="SVGID_8_">
				<use xlink:href="#SVGID_7_"  style="overflow:visible;"/>
			</clipPath>
			<rect x="3.8" y="-0.8" class="st3" width="29.2" height="33.3"/>
		</g>
	</g>
</g>
</svg>
