<?xml version="1.0" encoding="utf-8"?>
<!-- Generator: Adobe Illustrator 21.0.0, SVG Export Plug-In . SVG Version: 6.00 Build 0)  -->
<svg version="1.1" id="Capa_1" xmlns="http://www.w3.org/2000/svg" xmlns:xlink="http://www.w3.org/1999/xlink" x="0px" y="0px"
	 viewBox="0 0 30 30" style="enable-background:new 0 0 30 30;" xml:space="preserve">
<style type="text/css">
	.st0{clip-path:url(#SVGID_2_);}
	.st1{clip-path:url(#SVGID_4_);fill:#0071CE;}
	.st2{clip-path:url(#SVGID_6_);}
	.st3{clip-path:url(#SVGID_8_);fill:#0071CE;}
</style>
<g>
	<g>
		<defs>
			<path id="SVGID_1_" d="M6.2,10.5H2.8c-0.5,0-0.8,0.4-0.8,0.8v15.3c0,0.5,0.4,0.8,0.8,0.8h3.4c0.5,0,0.8-0.4,0.8-0.8V11.3
				C7.1,10.9,6.7,10.5,6.2,10.5z"/>
		</defs>
		<clipPath id="SVGID_2_">
			<use xlink:href="#SVGID_1_"  style="overflow:visible;"/>
		</clipPath>
		<g class="st0">
			<defs>
				<rect id="SVGID_3_" x="-848" y="-1586.5" width="1440" height="1928"/>
			</defs>
			<clipPath id="SVGID_4_">
				<use xlink:href="#SVGID_3_"  style="overflow:visible;"/>
			</clipPath>
			<rect x="-3" y="5.5" class="st1" width="15.1" height="27"/>
		</g>
	</g>
	<g>
		<defs>
			<path id="SVGID_5_" d="M25.9,10.5c-0.1,0-6.5,0-6.5,0l0.9-2.4c0.6-1.7,0.2-4.3-1.5-5.2c-0.6-0.3-1.3-0.4-2-0.3
				c-0.4,0.1-0.7,0.3-0.9,0.6c-0.2,0.4-0.2,0.8-0.3,1.2c-0.2,1-0.7,2-1.4,2.8c-1.3,1.3-5.4,5-5.4,5v13.6h14.1c1.9,0,3.2-2.1,2.2-3.8
				c1.1-0.7,1.5-2.2,0.8-3.4c1.1-0.7,1.5-2.2,0.8-3.4C28.8,13.9,28.1,10.9,25.9,10.5z"/>
		</defs>
		<clipPath id="SVGID_6_">
			<use xlink:href="#SVGID_5_"  style="overflow:visible;"/>
		</clipPath>
		<g class="st2">
			<defs>
				<rect id="SVGID_7_" x="-848" y="-1586.5" width="1440" height="1928"/>
			</defs>
			<clipPath id="SVGID_8_">
				<use xlink:href="#SVGID_7_"  style="overflow:visible;"/>
			</clipPath>
			<rect x="3.8" y="-2.5" class="st3" width="29.2" height="33.3"/>
		</g>
	</g>
</g>
</svg>
