<?xml version="1.0" encoding="utf-8"?>
<!-- Generator: Adobe Illustrator 21.0.0, SVG Export Plug-In . SVG Version: 6.00 Build 0)  -->
<svg version="1.1" id="Capa_1" xmlns="http://www.w3.org/2000/svg" xmlns:xlink="http://www.w3.org/1999/xlink" x="0px" y="0px"
	 viewBox="0 0 32 30" style="enable-background:new 0 0 32 30;" xml:space="preserve">
<style type="text/css">
	.st0{clip-path:url(#SVGID_2_);}
	.st1{clip-path:url(#SVGID_4_);}
</style>
<g>
	<defs>
		<path id="SVGID_1_" d="M26.8,9.4c0,0.2,0,0.4,0,0.7c0,8.1-5.9,16.5-15.7,16.5c-3,0-5.9-0.9-8.5-2.6c-0.1,0-0.1-0.1-0.1-0.2
			c0-0.1,0.1-0.1,0.1-0.1c0.4,0.1,0.9,0.1,1.3,0.1c2.3,0,4.6-0.8,6.4-2.2c-2.2-0.2-4.2-1.8-4.9-4.1c0,0,0-0.1,0-0.1
			c0,0,0.1-0.1,0.1,0c0.6,0.1,1.3,0.1,1.9,0c-2.3-0.8-3.9-3-3.9-5.6l0-0.1c0,0,0-0.1,0.1-0.1c0,0,0.1,0,0.1,0c0.6,0.4,1.3,0.6,2,0.7
			c-1.3-1.1-2.1-2.8-2.1-4.6c0-1,0.3-2.1,0.8-3c0,0,0.1-0.1,0.1-0.1c0,0,0.1,0,0.1,0.1c2.7,3.5,6.7,5.7,11,5.9
			c-0.1-0.4-0.1-0.8-0.1-1.2c0-3.2,2.5-5.9,5.6-5.9c1.5,0,3,0.7,4,1.8c1.2-0.3,2.3-0.7,3.4-1.4c0,0,0.1,0,0.2,0c0,0,0.1,0.1,0,0.2
			c-0.4,1.2-1,2.2-2,2.9c0.9-0.2,1.7-0.4,2.5-0.8c0.1,0,0.1,0,0.2,0c0,0,0,0.1,0,0.2C28.7,7.6,27.8,8.6,26.8,9.4z"/>
	</defs>
	<clipPath id="SVGID_2_">
		<use xlink:href="#SVGID_1_"  style="overflow:visible;"/>
	</clipPath>
	<g class="st0">
		<defs>
			<rect id="SVGID_3_" x="-167.5" y="-1090.5" width="375" height="4190"/>
		</defs>
		<clipPath id="SVGID_4_">
			<use xlink:href="#SVGID_3_"  style="overflow:visible;"/>
		</clipPath>
		<rect x="-2.5" y="-1.5" class="st1" width="37" height="33"/>
	</g>
</g>
</svg>
