<?xml version="1.0" encoding="utf-8"?>
<!-- Generator: Adobe Illustrator 21.0.0, SVG Export Plug-In . SVG Version: 6.00 Build 0)  -->
<svg version="1.1" id="Capa_1" xmlns="http://www.w3.org/2000/svg" xmlns:xlink="http://www.w3.org/1999/xlink" x="0px" y="0px"
	 viewBox="0 0 48 48" style="enable-background:new 0 0 48 48;" xml:space="preserve">
<style type="text/css">
	.st0{clip-path:url(#SVGID_2_);fill:#FFFFFF;}
</style>
<g>
	<defs>
		<path id="SVGID_1_" d="M37.2,18.2c0,0.3,0,0.5,0,0.8c0,9.3-7.1,19-19,19c-3.6,0-7.2-1-10.2-3C8,35,7.9,34.9,8,34.8
			c0-0.1,0.1-0.1,0.2-0.1c0.5,0.1,1,0.1,1.6,0.1c2.8,0,5.5-0.9,7.8-2.5c-2.7-0.2-5-2.1-5.9-4.7c0-0.1,0-0.1,0-0.2
			c0,0,0.1-0.1,0.2-0.1c0.8,0.1,1.5,0.2,2.3,0c-2.8-0.9-4.8-3.5-4.8-6.5l0-0.1c0-0.1,0-0.1,0.1-0.1c0,0,0.1,0,0.2,0
			c0.7,0.4,1.5,0.7,2.4,0.8c-1.6-1.3-2.6-3.2-2.6-5.3c0-1.2,0.3-2.4,0.9-3.4c0,0,0.1-0.1,0.1-0.1c0.1,0,0.1,0,0.1,0.1
			c3.3,4,8.1,6.5,13.3,6.8c-0.1-0.4-0.1-0.9-0.1-1.3c0-3.7,3-6.8,6.8-6.8c1.8,0,3.6,0.8,4.9,2.1c1.4-0.3,2.8-0.8,4.1-1.6
			c0.1,0,0.1,0,0.2,0c0.1,0,0.1,0.1,0.1,0.2c-0.4,1.3-1.3,2.5-2.4,3.3c1.1-0.2,2.1-0.5,3.1-0.9c0.1,0,0.1,0,0.2,0
			c0,0.1,0.1,0.1,0,0.2C39.6,16.2,38.5,17.3,37.2,18.2z M24,0C10.7,0,0,10.7,0,24s10.7,24,24,24s24-10.7,24-24S37.3,0,24,0z"/>
	</defs>
	<clipPath id="SVGID_2_">
		<use xlink:href="#SVGID_1_"  style="overflow:visible;"/>
	</clipPath>
	<rect x="-5" y="-5" class="st0" width="58" height="58"/>
</g>
</svg>
